<svg xmlns="http://www.w3.org/2000/svg" width="515" height="368" viewBox="0 0 515 368" version="1.1"><path d="M 6.089 4.750 L 3.957 6.500 3.968 149.410 C 3.978 281.337, 4.107 292.461, 5.645 294.160 C 7.095 295.763, 8.947 296, 20 296 C 33.900 296, 36 295.190, 36 289.826 C 36 285.356, 33.247 284, 24.171 284 L 16 284 16 150.107 C 16 28.937, 16.150 16.156, 17.582 15.607 C 19.650 14.813, 427.350 14.813, 429.418 15.607 C 430.674 16.089, 431 17.826, 431 24.034 C 431 31.292, 431.190 32.004, 433.635 33.927 L 436.270 36 240.246 36 L 44.222 36 41.861 37.912 L 39.500 39.823 39.240 181.447 L 38.980 323.070 41.444 325.535 L 43.909 328 54.389 328 C 66.224 328, 69.531 327.124, 71.154 323.561 C 72.062 321.568, 71.957 320.584, 70.619 318.541 L 68.954 316 60.477 316 L 52 316 52 182.500 L 52 49 257.310 49 L 462.620 49 462.560 58.587 C 462.504 67.482, 462.670 68.312, 464.851 70.080 L 467.203 71.985 273.013 72.242 L 78.823 72.500 76.901 74.873 L 74.980 77.247 75.240 219.470 C 75.457 338.263, 75.726 361.965, 76.872 363.346 C 78.141 364.875, 94.502 365, 293.566 365 L 508.887 365 510.443 362.777 C 511.835 360.791, 512 345.446, 512 218.432 L 512 76.310 509.913 74.421 C 507.604 72.331, 505.321 72.121, 484.095 72.047 L 470.690 72 472.595 69.896 C 474.277 68.038, 474.500 66.157, 474.500 53.809 L 474.500 39.826 472.139 37.913 C 470.034 36.207, 468.031 35.998, 453.639 35.985 C 439.979 35.973, 437.884 35.776, 440 34.707 L 442.500 33.444 442.786 19.972 L 443.073 6.500 440.926 4.750 L 438.778 3 223.500 3 L 8.222 3 6.089 4.750 M 87.246 218.750 L 87.500 352.500 293.750 352.752 L 500 353.005 500 219.002 L 500 85 293.496 85 L 86.993 85 87.246 218.750 M 286.192 136.432 L 281.500 140.863 281.209 171.932 L 280.918 203 249.709 203.042 C 215.340 203.088, 214.759 203.182, 209.830 209.476 C 206.300 213.983, 206.496 223.339, 210.222 228.224 C 214.987 234.471, 218.220 235, 251.678 235 L 281 235 281 264.162 L 281 293.324 283.539 297.657 C 288.954 306.896, 300.435 308.305, 307.863 300.641 C 309.674 298.773, 311.560 295.502, 312.054 293.372 C 312.548 291.242, 312.963 277.238, 312.976 262.250 L 313 235 339.788 235 L 366.576 235 371.030 232.750 C 375.973 230.253, 379.621 225.536, 380.585 220.396 C 381.430 215.894, 377.665 208.275, 373.102 205.251 L 369.704 203 341.352 203 L 313 203 312.976 175.250 C 312.963 159.988, 312.542 145.700, 312.040 143.500 C 311.410 140.734, 309.835 138.343, 306.936 135.750 C 303.089 132.310, 302.253 132, 296.813 132 L 290.884 132 286.192 136.432" stroke="none" fill="#f9f9f9" fill-rule="evenodd"/></svg>
