<svg xmlns="http://www.w3.org/2000/svg" width="368" height="368" viewBox="0 0 368 368" version="1.1"><path d="M 172.635 11.147 C 163.910 11.586, 156.260 12.357, 155.635 12.861 C 155.011 13.364, 152.025 14.109, 149 14.516 C 143.369 15.273, 132.023 18.439, 124 21.491 C 117.078 24.125, 99.167 32.920, 98.487 34.020 C 98.154 34.559, 97.009 35, 95.941 35 C 94.873 35, 94 35.565, 94 36.256 C 94 36.947, 92.597 38.133, 90.883 38.892 C 87.950 40.190, 76.830 48.278, 73.041 51.869 C 72.095 52.766, 68.661 55.993, 65.410 59.039 C 62.160 62.085, 57.025 67.485, 54 71.039 C 50.975 74.593, 48.163 77.650, 47.750 77.833 C 47.338 78.017, 47 78.570, 47 79.062 C 47 80.415, 36.884 94, 35.877 94 C 35.395 94, 35 94.708, 35 95.572 C 35 96.437, 32.543 102.175, 29.539 108.322 C 9.271 149.806, 6.545 195.526, 21.687 240 C 24.895 249.423, 33.005 267, 34.144 267 C 34.615 267, 35 268.087, 35 269.417 C 35 270.746, 35.374 271.983, 35.831 272.167 C 36.288 272.350, 39.389 276.573, 42.723 281.552 C 52.992 296.886, 67.808 312.083, 84.092 323.987 C 87.066 326.161, 90.044 328.404, 90.708 328.970 C 91.372 329.537, 92.347 330, 92.874 330 C 93.402 330, 93.983 330.377, 94.167 330.838 C 94.759 332.328, 118.985 343.905, 127.872 346.946 C 167.818 360.612, 210.050 359.849, 248.385 344.768 C 252.721 343.062, 256.884 341.667, 257.635 341.667 C 258.386 341.667, 259 341.305, 259 340.863 C 259 340.420, 261.587 338.845, 264.750 337.361 C 267.913 335.877, 271.892 333.614, 273.594 332.331 C 275.296 331.049, 277.209 330, 277.844 330 C 278.480 330, 279 329.556, 279 329.013 C 279 328.471, 280.462 327.411, 282.250 326.658 C 284.038 325.906, 287.376 323.762, 289.669 321.895 C 291.962 320.028, 294.717 317.825, 295.791 317 C 300.218 313.601, 306 307.939, 306 307.003 C 306 306.451, 306.464 306, 307.031 306 C 308.423 306, 316.131 297.572, 322.040 289.590 C 327.110 282.742, 329.688 278.867, 335.076 270 C 337.916 265.325, 340.524 261.275, 340.870 261 C 341.217 260.725, 341.636 259.825, 341.801 259 C 341.967 258.175, 344.031 252.550, 346.387 246.500 C 353.640 227.882, 356.554 215.238, 358.140 195.500 C 359.244 181.768, 359.169 179.190, 357.253 165 C 356.102 156.475, 354.697 147.113, 354.132 144.196 C 352.967 138.188, 348.142 123.798, 343.923 113.750 C 342.364 110.037, 341.407 106.986, 341.795 106.970 C 342.183 106.953, 341.712 106.481, 340.750 105.920 C 339.788 105.359, 339 104.510, 339 104.033 C 339 102.692, 330.579 88.764, 325.782 82.172 C 319.760 73.895, 312.593 65.745, 305.058 58.605 C 301.515 55.247, 297.318 51.262, 295.731 49.750 C 294.144 48.237, 292.673 47, 292.461 47 C 292.249 47, 288.282 44.346, 283.645 41.101 C 279.008 37.857, 274.265 34.902, 273.107 34.534 C 271.948 34.166, 271 33.446, 271 32.933 C 271 32.420, 270.100 32, 269 32 C 267.900 32, 267 31.630, 267 31.178 C 267 30.726, 264.637 29.331, 261.750 28.077 C 258.863 26.823, 254.486 24.893, 252.026 23.788 C 246.555 21.332, 231.897 16.612, 224.759 15.008 C 221.867 14.358, 217.925 13.441, 216 12.971 C 214.075 12.500, 208 11.838, 202.500 11.500 C 197 11.162, 191.600 10.764, 190.500 10.617 C 189.400 10.469, 181.361 10.708, 172.635 11.147 M 173 30.602 C 150.289 33.327, 152.634 32.842, 137 38.046 C 125.428 41.898, 118 45.077, 118 46.178 C 118 46.630, 117.307 47, 116.460 47 C 114.917 47, 106.939 50.726, 106 51.886 C 105.725 52.225, 104.270 53.137, 102.767 53.912 C 101.264 54.686, 99.145 56.148, 98.059 57.160 C 96.972 58.172, 95.615 59, 95.042 59 C 94.469 59, 94 59.450, 94 60 C 94 60.550, 93.518 61, 92.929 61 C 92.339 61, 91.279 61.563, 90.572 62.250 C 89.865 62.938, 86.224 66.200, 82.481 69.500 C 74.982 76.111, 59 94.617, 59 96.689 C 59 97.410, 58.579 98, 58.064 98 C 57.549 98, 54.931 101.938, 52.247 106.750 C 47.931 114.489, 46.459 117.474, 43.004 125.500 C 40.888 130.412, 38.159 139.100, 36.563 146 C 35.610 150.125, 34.365 155.075, 33.799 157 C 31.124 166.086, 32.027 210.827, 34.905 211.798 C 35.390 211.962, 35.563 212.956, 35.288 214.007 C 34.803 215.860, 36.120 221.091, 40.188 233.470 C 42.911 241.758, 51.085 259.683, 53.500 262.665 C 54.050 263.344, 56.975 267.599, 60 272.120 C 65.862 280.880, 78.221 294.789, 84 299.128 C 85.925 300.573, 88.494 302.711, 89.708 303.878 C 90.923 305.045, 92.348 306, 92.875 306 C 93.402 306, 93.983 306.356, 94.167 306.791 C 94.484 307.544, 103.704 314, 104.463 314 C 104.662 314, 107.217 315.575, 110.140 317.500 C 113.063 319.425, 115.771 321, 116.157 321 C 116.544 321, 119.704 322.292, 123.180 323.872 C 129.066 326.547, 133.296 328.114, 142 330.845 C 163.771 337.676, 197.560 338.758, 219.500 333.325 C 233.070 329.966, 248.408 324.317, 255.794 319.959 C 257.620 318.882, 259.764 318, 260.557 318 C 261.351 318, 262 317.544, 262 316.987 C 262 316.430, 264.025 314.990, 266.500 313.788 C 268.975 312.585, 271 311.241, 271 310.801 C 271 310.360, 271.454 310, 272.010 310 C 273.279 310, 287.311 298.841, 292.040 294.071 C 296.674 289.396, 304.850 280.115, 308 275.952 C 309.375 274.135, 310.950 272.149, 311.500 271.538 C 312.591 270.327, 315.212 265.941, 317.199 262 C 317.892 260.625, 318.733 259.275, 319.068 259 C 319.672 258.504, 325.614 246.119, 327.868 240.659 C 331.064 232.915, 334.420 220.801, 337.194 207 C 340.011 192.980, 338.158 156.500, 334.043 145 C 333.551 143.625, 332.163 139.125, 330.958 135 C 329.753 130.875, 328.147 126.843, 327.389 126.041 C 326.198 124.780, 316.858 133.738, 258.818 191.802 C 200.902 249.744, 191.073 259.173, 187.611 260.105 C 179.669 262.243, 179.267 261.921, 137.279 219.764 C 115.950 198.351, 97.900 180.306, 97.166 179.665 C 92.464 175.558, 85.586 167.611, 83.940 164.382 C 81.892 160.365, 81.408 157, 82.879 157 C 83.362 157, 84.323 155.635, 85.014 153.966 C 87.728 147.414, 95.725 144.320, 101.672 147.523 C 103.515 148.515, 122.493 166.804, 143.845 188.164 C 165.197 209.524, 183.253 227, 183.969 227 C 184.685 227, 214.027 198.259, 249.173 163.130 C 311.875 100.461, 313.053 99.211, 311.877 96.630 C 311.218 95.184, 310.301 94, 309.839 94 C 309.378 94, 309 93.347, 309 92.550 C 309 91.752, 308.425 90.740, 307.723 90.300 C 307.021 89.860, 304.899 87.513, 303.008 85.084 C 298.335 79.083, 291.695 72.401, 284.500 66.457 C 281.200 63.730, 278.140 60.938, 277.700 60.250 C 277.260 59.563, 276.248 59, 275.450 59 C 274.653 59, 274 58.584, 274 58.075 C 274 57.131, 267.276 53.111, 256.459 47.586 C 239.598 38.974, 230.988 36.072, 210 31.928 C 204.223 30.787, 178.993 29.883, 173 30.602" stroke="none" fill="#13fb0d" fill-rule="evenodd"/></svg>
