<svg xmlns="http://www.w3.org/2000/svg" width="368" height="368" viewBox="0 0 368 368" version="1.1"><path d="M 160 10.692 C 156.975 11.410, 153.713 11.816, 152.750 11.593 C 151.787 11.370, 151 11.539, 151 11.969 C 151 12.398, 149.988 12.759, 148.750 12.770 C 146.401 12.790, 128.699 17.902, 123.500 20.062 C 121.850 20.747, 119.975 21.418, 119.333 21.553 C 118.186 21.794, 98.663 31.460, 93.922 34.134 C 92.590 34.885, 89.842 36.752, 87.816 38.282 C 85.789 39.812, 81.739 42.688, 78.816 44.672 C 69.772 50.811, 48.084 73.317, 41.268 83.635 C 40.591 84.661, 38.889 87.228, 37.487 89.341 C 36.085 91.453, 33.489 95.925, 31.719 99.278 C 29.948 102.631, 27.500 107.203, 26.278 109.438 C 25.056 111.672, 24.044 114.198, 24.028 115.050 C 24.013 115.902, 23.581 117.027, 23.068 117.550 C 22.057 118.581, 16.095 135.932, 15.354 140 C 15.104 141.375, 14.282 144.598, 13.529 147.163 C 12.776 149.728, 12.413 152.079, 12.722 152.389 C 13.032 152.698, 12.775 153.566, 12.151 154.318 C 11.528 155.069, 11.238 155.905, 11.507 156.174 C 11.777 156.444, 11.279 161.352, 10.401 167.082 C 8.070 182.287, 9.482 203.096, 14.125 222 C 14.733 224.475, 15.358 227.457, 15.514 228.626 C 15.669 229.795, 16.329 231.746, 16.979 232.961 C 17.630 234.177, 17.935 235.398, 17.658 235.676 C 17.380 235.953, 19.116 240.864, 21.515 246.590 C 23.914 252.315, 25.648 257, 25.370 257 C 25.092 257, 25.794 258.307, 26.932 259.904 C 28.069 261.502, 29 263.085, 29 263.422 C 29 263.760, 30.800 266.999, 33 270.620 C 35.200 274.242, 37 277.431, 37 277.709 C 37 277.986, 39.709 281.765, 43.021 286.107 C 46.332 290.448, 48.827 294, 48.566 294 C 47.914 294, 70.846 316.861, 74.806 320.160 C 76.563 321.623, 78.014 322.523, 78.032 322.160 C 78.049 321.797, 78.612 322.188, 79.282 323.028 C 82.505 327.072, 118.388 347.146, 123 347.486 C 123.275 347.507, 124.850 348.018, 126.500 348.622 C 131.325 350.390, 136.745 352.066, 139.103 352.520 C 140.308 352.752, 142.896 353.471, 144.855 354.117 C 146.814 354.764, 149.673 355.257, 151.208 355.213 C 152.744 355.169, 154 355.540, 154 356.035 C 154 356.531, 154.599 356.707, 155.331 356.426 C 156.063 356.146, 158.875 356.430, 161.581 357.060 C 169.028 358.791, 195.134 359.031, 204.500 357.454 C 208.900 356.713, 214.300 355.884, 216.500 355.611 C 218.700 355.338, 222.637 354.458, 225.250 353.656 C 227.863 352.853, 230 352.345, 230 352.527 C 230 352.709, 233.712 351.520, 238.250 349.884 C 242.787 348.248, 246.950 346.774, 247.500 346.610 C 248.915 346.187, 257.674 342.275, 262.999 339.687 C 274.952 333.878, 295.869 319.497, 301.206 313.418 C 302.853 311.542, 304.676 310.300, 305.255 310.658 C 305.835 311.016, 306.038 310.870, 305.706 310.333 C 305.067 309.299, 308.975 305.373, 310.250 305.768 C 310.663 305.896, 311 305.365, 311 304.589 C 311 303.813, 312.274 302.105, 313.832 300.795 C 315.390 299.484, 320.794 292.582, 325.842 285.456 C 330.890 278.330, 335.483 271.938, 336.049 271.250 C 336.616 270.563, 336.830 270, 336.527 270 C 336.223 270, 337.020 268.313, 338.296 266.250 C 341.119 261.691, 349 243.414, 349 241.428 C 349 240.643, 349.477 240, 350.059 240 C 350.641 240, 350.852 239.570, 350.527 239.044 C 350.202 238.518, 350.603 236.493, 351.417 234.544 C 352.232 232.595, 352.707 231, 352.474 231 C 352.240 231, 352.506 229.799, 353.065 228.330 C 358.455 214.151, 360.611 173.802, 356.891 156.710 C 355.838 151.876, 354.791 146.476, 354.563 144.710 C 354.335 142.945, 353.676 140.262, 353.099 138.750 C 352.522 137.238, 352.239 136, 352.472 136 C 352.704 136, 351.760 132.963, 350.374 129.250 C 348.988 125.537, 347.487 121.327, 347.038 119.894 C 343.698 109.226, 328.045 82.771, 319.192 72.832 C 317.885 71.365, 316.745 69.833, 316.658 69.428 C 316.471 68.557, 300.248 52.969, 294.500 48.138 C 287.808 42.513, 273.782 33.395, 263.622 28.064 C 258.330 25.287, 254 23.247, 254 23.531 C 254 23.814, 252.952 23.359, 251.670 22.520 C 250.389 21.680, 249.039 21.295, 248.670 21.663 C 248.302 22.032, 248 21.883, 248 21.333 C 248 20.783, 247.438 20.316, 246.750 20.294 C 244.635 20.227, 242.528 19.538, 241.919 18.714 C 241.599 18.282, 240.067 17.698, 238.514 17.417 C 236.961 17.135, 234.919 16.492, 233.977 15.988 C 233.034 15.483, 232.049 15.284, 231.787 15.546 C 231.526 15.807, 229.336 15.324, 226.920 14.472 C 224.505 13.620, 220.762 12.700, 218.602 12.429 C 216.442 12.158, 212.611 11.442, 210.088 10.839 C 203.242 9.202, 166.725 9.095, 160 10.692 M 172 30.051 C 161.089 31.374, 157.522 31.849, 157 32.047 C 156.725 32.151, 156.213 32.200, 155.863 32.156 C 155.512 32.111, 153.712 32.515, 151.863 33.054 C 150.013 33.592, 147.150 34.269, 145.500 34.559 C 140.091 35.508, 131.462 38.589, 121 43.307 C 118.525 44.423, 116.233 45.373, 115.906 45.418 C 114.630 45.594, 100.825 54.183, 94.827 58.534 C 91.347 61.058, 87.375 63.858, 86 64.755 C 84.625 65.653, 78.621 71.588, 72.657 77.944 C 62.314 88.968, 53.781 100.422, 50.268 108 C 49.375 109.925, 47.896 112.625, 46.980 114 C 43.975 118.511, 34.978 142.993, 34.347 148.374 C 34.162 149.955, 33.603 152.880, 33.105 154.874 C 32.607 156.868, 32.170 159.175, 32.133 160 C 32.097 160.825, 31.781 163.075, 31.431 165 C 30.102 172.323, 30.778 204.112, 32.296 205.629 C 32.607 205.941, 32.638 206.779, 32.364 207.493 C 32.091 208.207, 32.393 210.746, 33.036 213.135 C 33.680 215.525, 34.355 218.610, 34.537 219.990 C 35.044 223.839, 41.099 241.189, 42.901 243.956 C 43.780 245.307, 44.383 246.547, 44.239 246.711 C 43.774 247.245, 50.628 260.514, 54.507 266.589 C 60.377 275.780, 66.052 282.766, 75.137 291.986 C 79.737 296.653, 83.376 300.849, 83.225 301.310 C 83.074 301.771, 83.375 301.886, 83.895 301.565 C 84.414 301.244, 85.438 301.565, 86.169 302.277 C 86.901 302.990, 89.300 304.904, 91.500 306.531 C 93.700 308.157, 95.725 309.743, 96 310.054 C 96.275 310.365, 99.875 312.694, 104 315.229 C 110.621 319.299, 115.477 321.742, 126.501 326.549 C 131.086 328.548, 145.186 333.049, 148 333.411 C 149.375 333.588, 152.300 334.197, 154.500 334.766 C 156.700 335.335, 159.175 335.827, 160 335.861 C 160.825 335.895, 163.975 336.232, 167 336.612 C 178.364 338.036, 206.601 337.455, 207.639 335.775 C 207.913 335.331, 208.547 335.220, 209.046 335.528 C 209.545 335.837, 211.877 335.559, 214.227 334.911 C 216.577 334.263, 219.646 333.587, 221.047 333.409 C 222.449 333.232, 228.173 331.529, 233.770 329.626 C 250.699 323.869, 267.237 314.825, 280.921 303.840 C 282.803 302.329, 284.785 301.367, 285.326 301.701 C 285.866 302.036, 286.034 301.864, 285.698 301.321 C 285.362 300.777, 287.880 297.639, 291.294 294.347 C 299.360 286.569, 303.643 281.786, 308.754 274.848 C 312.417 269.877, 322 254.422, 322 253.487 C 322 253.296, 323.273 250.296, 324.830 246.820 C 329.611 236.142, 332.698 227.503, 333.612 222.242 C 333.874 220.734, 334.501 217.967, 335.006 216.094 C 335.512 214.220, 335.690 212.308, 335.403 211.844 C 335.117 211.380, 335.353 211, 335.929 211 C 336.505 211, 336.877 210.213, 336.754 209.250 C 336.632 208.287, 337.166 202.166, 337.940 195.648 C 339.116 185.742, 339.136 181.882, 338.060 172.148 C 336.684 159.686, 336.264 156.500, 336 156.500 C 335.908 156.500, 335.718 155.600, 335.577 154.500 C 335.436 153.400, 334.939 150.925, 334.472 149 C 334.005 147.075, 333.727 144.938, 333.855 144.250 C 333.983 143.563, 333.591 143, 332.985 143 C 332.378 143, 332.114 142.624, 332.398 142.165 C 333.089 141.046, 328.644 128.288, 324.327 119 C 322.410 114.875, 320.764 111.050, 320.670 110.500 C 320.577 109.950, 320.245 109.275, 319.934 109 C 319.622 108.725, 316.970 104.907, 314.039 100.515 C 303.088 84.106, 292.350 72.413, 278.393 61.700 C 269.787 55.094, 260.006 48.751, 259.985 49.762 C 259.976 50.168, 259.639 49.997, 259.235 49.381 C 258.544 48.330, 248.679 42.904, 246.500 42.378 C 245.950 42.245, 243.025 41.176, 240 40.003 C 232.559 37.116, 225.919 34.917, 223.500 34.536 C 222.400 34.363, 219.577 33.702, 217.227 33.066 C 214.877 32.430, 212.514 32.182, 211.977 32.514 C 211.440 32.846, 211 32.593, 211 31.952 C 211 31.311, 210.438 30.988, 209.750 31.235 C 209.063 31.482, 204.225 31.110, 199 30.409 C 188.367 28.981, 181.567 28.891, 172 30.051 M 166.274 66.715 C 162.656 67.383, 159.314 67.694, 158.848 67.406 C 158.382 67.118, 158 67.396, 158 68.024 C 158 68.653, 157.438 68.977, 156.750 68.745 C 156.063 68.512, 154.018 68.939, 152.206 69.693 C 150.394 70.447, 148.482 70.798, 147.956 70.473 C 147.430 70.148, 147 70.434, 147 71.108 C 147 71.782, 146.741 72.074, 146.423 71.757 C 145.696 71.030, 137.086 74.734, 134.750 76.778 C 132.339 78.888, 132.559 82.509, 135.250 85.026 C 137.755 87.368, 138.155 87.325, 148.807 83.556 C 152.826 82.134, 157.346 80.836, 158.852 80.671 C 160.358 80.506, 162.020 80.138, 162.545 79.854 C 165.097 78.471, 188.894 77.990, 199 79.117 C 204.517 79.733, 215.991 82.533, 218.930 83.982 C 221.034 85.019, 228.372 88.328, 229 88.523 C 231.526 89.307, 239.055 93.281, 239.560 94.097 C 239.913 94.668, 240.809 94.904, 241.550 94.619 C 242.473 94.265, 242.706 94.637, 242.290 95.801 C 241.955 96.735, 242.035 97.180, 242.468 96.790 C 244.010 95.396, 263.723 112.944, 262.259 114.408 C 261.933 114.734, 262.137 115, 262.712 115 C 264.433 115, 271.544 124.926, 276.333 134.015 C 284.531 149.571, 288.034 163.246, 288.496 181.500 C 288.664 188.100, 288.557 193.898, 288.259 194.384 C 287.961 194.869, 287.590 196.669, 287.436 198.384 C 286.798 205.450, 284.925 213.447, 283.215 216.404 C 282.797 217.126, 277.824 208.929, 277.511 207 C 277.466 206.725, 276.786 205.375, 276 204 C 275.215 202.625, 273.593 199.700, 272.397 197.500 C 269.675 192.492, 265.915 190.862, 263.056 193.449 C 259.558 196.615, 259.693 198.567, 264.025 207.434 C 266.305 212.100, 268.163 216.273, 268.156 216.709 C 268.149 217.144, 268.711 218.175, 269.406 219 C 271.118 221.033, 275.106 229, 274.411 229 C 274.105 229, 274.788 230.186, 275.927 231.635 C 277.067 233.084, 278 234.719, 278 235.268 C 278 236.584, 281.977 240, 283.509 240 C 284.171 240, 293.777 235.510, 304.856 230.022 L 325 220.044 325 216.057 C 325 211.906, 323.180 209.974, 319.316 210.023 C 318.317 210.036, 312.580 212.503, 306.566 215.506 C 300.553 218.509, 295.530 220.861, 295.404 220.733 C 295.278 220.605, 296.245 216.495, 297.554 211.600 C 298.862 206.705, 299.715 202.349, 299.450 201.919 C 299.185 201.490, 299.347 200.903, 299.812 200.616 C 300.725 200.052, 300.728 168.472, 299.815 166 C 299.510 165.175, 298.727 161.800, 298.074 158.500 C 297.422 155.200, 296.661 151.375, 296.384 150 C 296.107 148.625, 295.457 147.072, 294.940 146.550 C 294.423 146.027, 294 144.870, 294 143.977 C 294 143.085, 292.650 139.568, 291 136.161 C 289.350 132.755, 288 129.699, 288 129.370 C 288 127.722, 274.602 108.633, 269.894 103.573 C 263.913 97.146, 254.288 89.193, 246.559 84.293 C 243.776 82.529, 241.050 80.704, 240.500 80.237 C 239.950 79.770, 239.050 79.242, 238.500 79.063 C 237.950 78.884, 235.025 77.633, 232 76.284 C 221.463 71.583, 220.133 71.106, 214.085 69.857 C 210.738 69.165, 208 68.213, 208 67.741 C 208 67.268, 207.579 67.142, 207.065 67.460 C 206.551 67.778, 203.963 67.529, 201.315 66.907 C 194.696 65.352, 174.259 65.240, 166.274 66.715 M 61.592 137.827 C 41.274 148.222, 39.369 149.861, 42.341 154.397 C 45.011 158.473, 48.438 158.045, 59.792 152.217 C 65.452 149.311, 70.487 147.183, 70.980 147.488 C 71.474 147.793, 71.075 150.393, 70.092 153.271 C 69.110 156.147, 68.500 159.063, 68.737 159.750 C 68.973 160.438, 68.792 161, 68.333 161 C 67.875 161, 67.457 162.012, 67.404 163.250 C 67.350 164.488, 66.729 169.662, 66.023 174.750 C 64.980 182.258, 64.978 185.742, 66.011 193.250 C 66.712 198.338, 67.364 203.423, 67.460 204.550 C 67.556 205.678, 67.969 207.141, 68.377 207.800 C 68.784 208.460, 68.886 209, 68.603 209 C 68.320 209, 68.741 210.848, 69.538 213.106 C 70.334 215.365, 70.738 217.615, 70.434 218.106 C 70.130 218.598, 70.359 219, 70.941 219 C 71.523 219, 71.895 219.338, 71.766 219.750 C 71.115 221.834, 80.536 242.400, 84.132 246.743 C 84.932 247.709, 86.242 249.850, 87.043 251.500 C 89.516 256.592, 109.924 276.358, 118.500 281.967 C 126.100 286.938, 139.771 293.975, 143 294.577 C 143.825 294.731, 148.227 295.963, 152.782 297.316 C 157.337 298.669, 161.274 299.826, 161.532 299.888 C 161.789 299.949, 162.113 300.035, 162.250 300.077 C 162.387 300.120, 165.650 300.440, 169.500 300.789 C 182.435 301.962, 203.975 301.286, 203.992 299.706 C 203.996 299.270, 204.563 299.015, 205.250 299.142 C 207.334 299.524, 218.271 296.781, 222 294.941 C 223.925 293.991, 225.833 293.154, 226.240 293.080 C 230.237 292.352, 232.699 290.159, 233.163 286.912 C 233.863 282.009, 227.414 279.057, 222.185 281.887 C 220.912 282.576, 219.112 283.335, 218.185 283.573 C 217.258 283.811, 213.130 284.911, 209.011 286.018 C 204.893 287.125, 200.955 287.813, 200.261 287.547 C 199.568 287.281, 199 287.478, 199 287.986 C 199 289.163, 171.858 289.170, 166.500 287.994 C 164.300 287.512, 161.228 286.889, 159.674 286.611 C 156.464 286.036, 149.998 284.032, 148.500 283.147 C 147.950 282.822, 146.963 282.475, 146.306 282.375 C 144.085 282.037, 129.530 274.735, 125 271.686 C 122.525 270.020, 118.426 266.945, 115.891 264.853 C 113.357 262.762, 110.957 261.377, 110.558 261.775 C 110.159 262.174, 109.983 261.825, 110.167 261 C 110.351 260.170, 109.909 259.623, 109.176 259.775 C 108.447 259.926, 108.105 259.639, 108.415 259.138 C 108.724 258.637, 108.238 257.613, 107.333 256.863 C 104.382 254.417, 95.453 242.630, 92.176 236.854 C 80.885 216.955, 76.673 195.561, 79.111 170.500 C 79.882 162.581, 83.042 149.908, 84.085 150.553 C 85.073 151.163, 95.410 172.207, 95.197 173.176 C 94.974 174.196, 100.692 175.233, 102.817 174.558 C 103.842 174.233, 105.263 172.877, 105.976 171.545 C 107.168 169.318, 106.489 167.569, 97.538 149.811 C 92.185 139.190, 87.459 130.133, 87.036 129.684 C 84.476 126.965, 80.063 128.377, 61.592 137.827" stroke="none" fill="#7d7d7d" fill-rule="evenodd"/></svg>
