<svg xmlns="http://www.w3.org/2000/svg" width="368" height="368" viewBox="0 0 368 368" version="1.1"><path d="M 169.500 9.446 C 168.950 9.680, 166.025 10.082, 163 10.341 C 150.866 11.378, 130.493 16.376, 121.349 20.559 C 119.616 21.351, 117.913 22, 117.566 22 C 115.816 22, 93.987 33.618, 87.234 38.144 C 44.936 66.492, 17.536 110.771, 10.900 161.500 C 9.020 175.873, 9.136 201.785, 11.116 209.500 C 11.540 211.150, 12.634 216.325, 13.548 221 C 18.308 245.333, 31.405 272.685, 48.451 293.888 C 55.699 302.905, 70.915 317.521, 80 324.195 C 102.432 340.674, 130.963 352.537, 158 356.625 C 169.532 358.369, 199.033 358.950, 205.500 357.560 C 207.150 357.205, 211.425 356.470, 215 355.925 C 231.954 353.342, 256.619 343.930, 274.500 333.219 C 318.048 307.134, 349.311 260.231, 356.633 210 C 361.392 177.349, 357.546 146.595, 344.861 115.877 C 340.758 105.941, 332.038 89.807, 328.218 85.084 C 327.514 84.213, 324.190 79.900, 320.834 75.500 C 312.636 64.754, 297.225 49.869, 285.827 41.688 C 266.819 28.045, 238.329 15.964, 215.500 11.865 C 205.414 10.054, 172.183 8.307, 169.500 9.446 M 165 30.532 C 137.535 34.209, 113.578 43.822, 91.750 59.923 C 89.138 61.850, 87 63.724, 87 64.087 C 87 65.015, 182.133 160, 183.062 160 C 184.132 160, 280 64.246, 280 63.177 C 280 62.075, 265.655 52.405, 256.861 47.581 C 240.665 38.695, 222.108 33, 201 30.438 C 187.356 28.782, 177.894 28.806, 165 30.532 M 252.250 131.206 C 225.712 157.772, 204.005 179.956, 204.012 180.504 C 204.027 181.839, 221.705 200, 222.990 200 C 223.545 200, 224 200.374, 224 200.831 C 224 201.288, 241.868 219.520, 263.706 241.348 L 303.413 281.034 305.511 278.767 C 309.066 274.925, 317.405 261.908, 321.698 253.500 C 330.702 235.864, 335.809 217.540, 338.003 195 C 340.494 169.412, 333.760 136.748, 320.950 112.283 C 316.328 103.456, 308.836 92.182, 304.058 86.865 L 300.500 82.905 252.250 131.206 M 62.213 88.750 C 52.390 101.218, 43.688 117.427, 38.190 133.500 C 33.380 147.560, 31.987 154.137, 30.471 169.962 C 27.293 203.134, 34.575 234.613, 52.183 263.819 C 57.716 272.998, 57.641 272.886, 61.309 277.407 L 63.667 280.314 113.393 230.471 L 163.120 180.628 115.314 132.814 C 89.021 106.516, 66.981 85, 66.338 85 C 65.695 85, 63.838 86.688, 62.213 88.750 M 133.246 250.254 C 106.161 277.343, 84 300.038, 84 300.686 C 84 301.334, 85.462 302.885, 87.250 304.134 C 89.037 305.382, 90.725 306.687, 91 307.032 C 91.275 307.378, 94.895 309.939, 99.044 312.722 C 114.300 322.957, 136.095 331.770, 155.838 335.687 C 162.314 336.972, 169.547 337.401, 184.500 337.385 C 201.579 337.367, 206.033 337.029, 215 335.071 C 234.086 330.904, 254.151 322.656, 267.500 313.490 C 279.884 304.987, 283 302.586, 283 301.544 C 283 300.528, 183.984 201, 182.973 201 C 182.709 201, 160.332 223.164, 133.246 250.254" stroke="none" fill="#f90907" fill-rule="evenodd"/></svg>
