<svg xmlns="http://www.w3.org/2000/svg" width="516" height="368" viewBox="0 0 516 368" version="1.1"><path d="M 1.200 1.200 C 0.278 2.122, 0 36.229, 0 148.629 C 0 280.230, 0.157 295.014, 1.571 296.429 C 2.838 297.695, 5.652 298, 16.071 298 C 27.667 298, 29.206 297.794, 31 296 C 33.546 293.454, 33.546 290.546, 31 288 C 29.314 286.314, 27.667 286, 20.500 286 L 12 286 12 149 L 12 12 223.500 12 L 435 12 435 20.309 C 435 29.970, 436.155 32.333, 440.876 32.333 C 446.139 32.333, 446.932 30.184, 446.968 15.821 C 446.994 5.599, 446.696 2.838, 445.429 1.571 C 444.009 0.152, 422.458 0, 223.129 0 C 52.784 0, 2.126 0.274, 1.200 1.200 M 37.750 35.080 C 36.096 36.043, 36 44.071, 36 181.359 C 36 305.134, 36.210 326.905, 37.417 328.559 C 38.660 330.260, 40.296 330.534, 50.667 330.779 C 64.876 331.113, 67.349 330.254, 67.805 324.822 C 68.251 319.507, 65.594 318, 55.777 318 L 48 318 48 182 L 48 46 257.465 46 L 466.930 46 467.215 56.214 C 467.493 66.192, 467.564 66.464, 470.250 67.964 C 472.723 69.345, 473.277 69.345, 475.750 67.963 C 478.500 66.426, 478.500 66.426, 478.776 51.811 C 479.009 39.505, 478.800 36.943, 477.455 35.598 C 476.001 34.144, 456.231 34.003, 257.679 34.030 C 111.340 34.051, 38.924 34.396, 37.750 35.080 M 74.405 72.105 C 72.553 74.151, 72.492 78.201, 72.223 217.355 C 72.070 296.085, 72.183 361.481, 72.474 362.680 C 72.765 363.879, 73.709 365.567, 74.573 366.430 C 75.990 367.847, 97.449 368, 294.871 368 C 463.660 368, 513.874 367.726, 514.800 366.800 C 515.722 365.878, 516 331.771, 516 219.371 C 516 87.770, 515.843 72.986, 514.429 71.571 C 513.010 70.152, 491.681 70, 294.584 70 C 76.310 70, 76.310 70, 74.405 72.105 M 85 219 L 85 356 294.500 356 L 504 356 504 219 L 504 82 294.500 82 L 85 82 85 219 M 295.500 130.712 C 290.885 131.636, 287.915 133.422, 285.288 136.855 L 282.500 140.500 282.210 171.750 L 281.919 203 250.210 203.016 C 219.248 203.033, 218.407 203.086, 214.575 205.266 C 210.099 207.814, 205.991 214.601, 206.016 219.407 C 206.037 223.187, 209.591 229.638, 213.077 232.222 C 217.460 235.471, 222.536 235.951, 252.709 235.976 L 281.918 236 282.209 266.750 L 282.500 297.500 285.327 301.195 C 287.279 303.747, 289.677 305.396, 293.077 306.526 C 297.646 308.043, 298.360 308.041, 303.014 306.495 C 306.461 305.350, 308.883 303.710, 310.764 301.245 L 313.500 297.659 313.791 266.830 L 314.082 236 341.345 236 C 368.607 236, 368.607 236, 373.917 233.354 C 378.372 231.134, 379.610 229.885, 381.604 225.604 C 384.585 219.201, 384.575 218.547, 381.394 212.162 C 376.918 203.180, 376.155 203, 342.580 203 L 314.081 203 313.790 171.750 C 313.503 140.854, 313.474 140.463, 311.171 137.235 C 307.766 132.461, 300.946 129.622, 295.500 130.712" stroke="none" fill="#050505" fill-rule="evenodd"/></svg>
