<svg xmlns="http://www.w3.org/2000/svg" width="516" height="368" viewBox="0 0 516 368" version="1.1"><path d="M 1.200 1.200 C 0.278 2.122, 0 36.229, 0 148.629 C 0 280.230, 0.157 295.014, 1.571 296.429 C 2.838 297.695, 5.652 298, 16.071 298 C 27.667 298, 29.206 297.794, 31 296 C 33.546 293.454, 33.546 290.546, 31 288 C 29.314 286.314, 27.667 286, 20.500 286 L 12 286 12 149 L 12 12 223.500 12 L 435 12 435 20.309 C 435 29.970, 436.155 32.333, 440.876 32.333 C 446.139 32.333, 446.932 30.184, 446.968 15.821 C 446.994 5.599, 446.696 2.838, 445.429 1.571 C 444.009 0.152, 422.458 0, 223.129 0 C 52.784 0, 2.126 0.274, 1.200 1.200 M 37.750 35.080 C 36.096 36.043, 36 44.071, 36 181.359 C 36 305.134, 36.210 326.905, 37.417 328.559 C 38.660 330.260, 40.296 330.534, 50.667 330.779 C 64.876 331.113, 67.349 330.254, 67.805 324.822 C 68.251 319.507, 65.594 318, 55.777 318 L 48 318 48 182 L 48 46 257.465 46 L 466.930 46 467.215 56.214 C 467.493 66.192, 467.564 66.464, 470.250 67.964 C 472.723 69.345, 473.277 69.345, 475.750 67.963 L 478.500 66.426 478.776 51.811 C 479.009 39.505, 478.800 36.943, 477.455 35.598 C 476.001 34.144, 456.231 34.003, 257.679 34.030 C 111.340 34.051, 38.924 34.396, 37.750 35.080 M 74.405 72.105 C 72.553 74.151, 72.492 78.201, 72.223 217.355 C 72.070 296.085, 72.183 361.481, 72.474 362.680 C 72.765 363.879, 73.709 365.567, 74.573 366.430 C 75.990 367.847, 97.449 368, 294.871 368 C 463.660 368, 513.874 367.726, 514.800 366.800 C 515.722 365.878, 516 331.771, 516 219.371 C 516 87.770, 515.843 72.986, 514.429 71.571 C 513.010 70.152, 491.681 70, 294.584 70 L 76.310 70 74.405 72.105 M 85 219 L 85 356 294.500 356 L 504 356 504 219 L 504 82 294.500 82 L 85 82 85 219 M 276.125 101.524 C 248.325 109.932, 228.675 134.549, 227.233 162.773 C 226.779 171.671, 226.873 172.209, 229.564 176.092 C 231.106 178.318, 233.613 180.783, 235.135 181.570 C 241.579 184.902, 251.781 182.026, 255.431 175.848 C 256.443 174.134, 257.504 169.432, 257.946 164.692 C 258.871 154.783, 261.499 148.803, 268.107 141.573 C 276.187 132.732, 290.130 127.862, 300.994 130.087 C 309.859 131.902, 316.340 135.520, 322.343 142.004 C 329.491 149.725, 332.327 156.824, 332.327 167 C 332.327 177.176, 329.491 184.275, 322.343 191.996 C 315.272 199.634, 309.191 202.578, 296.592 204.465 C 289 205.602, 286.114 206.481, 284.247 208.224 C 279.264 212.877, 279 214.381, 279 238.064 C 279 259.164, 279.107 260.419, 281.239 264.212 C 284.036 269.188, 287.456 271, 294.050 271 C 298.542 271, 299.621 270.579, 302.497 267.703 C 306.848 263.352, 307.988 258.747, 307.994 245.496 L 308 234.493 316.558 231.740 C 336.824 225.221, 353.763 208.072, 360.256 187.500 C 363.442 177.404, 363.442 156.598, 360.256 146.500 C 355.835 132.488, 344.223 117.625, 331.041 109.105 C 320.730 102.441, 311.547 99.815, 297 99.372 C 285.840 99.032, 283.602 99.263, 276.125 101.524 M 291.500 286.513 C 290.950 286.691, 288.832 287.115, 286.793 287.455 C 280.756 288.464, 273.757 294.747, 271.186 301.465 C 268.460 308.588, 268.435 312.485, 271.072 319.213 C 275.058 329.383, 282.110 334, 293.658 334 C 299.059 334, 301.690 333.469, 305.025 331.705 C 309.971 329.090, 315.413 321.894, 317.054 315.800 C 319.699 305.978, 313.325 293.118, 303.608 288.670 C 300.415 287.209, 293.279 285.937, 291.500 286.513" stroke="none" fill="#050505" fill-rule="evenodd"/></svg>
