<svg xmlns="http://www.w3.org/2000/svg" width="369" height="369" viewBox="0 0 369 369" version="1.1"><path d="M 167.500 26.626 C 150.666 28.451, 129.415 34.779, 113.591 42.677 C 104.555 47.188, 88 57.667, 88 58.876 C 88 59.223, 109.039 80.544, 134.754 106.254 C 175.441 146.935, 181.893 153, 184.479 153 C 187.063 153, 193.469 146.986, 233.725 106.765 C 259.176 81.335, 280 60.061, 280 59.488 C 280 57.770, 262.174 46.374, 252 41.589 C 230.291 31.377, 212.126 27.114, 188 26.566 C 178.925 26.361, 169.700 26.387, 167.500 26.626 M 60.495 85.363 C 45.878 105.383, 38.580 119.642, 32.883 139.306 C 21.773 177.656, 25.027 215.933, 42.510 252.531 C 47.064 262.064, 57.793 279, 59.279 279 C 59.762 279, 81.721 257.402, 108.078 231.005 C 147.882 191.139, 156 182.547, 156 180.279 C 156 178.013, 148.075 169.618, 109.264 130.775 C 83.560 105.049, 62.295 84, 62.009 84 C 61.724 84, 61.042 84.613, 60.495 85.363 M 260.246 132.254 C 220.006 172.501, 214 178.894, 214 181.479 C 214 184.064, 220.070 190.525, 260.736 231.225 C 286.440 256.951, 308.023 278, 308.698 278 C 310.254 278, 316.389 268.983, 322.306 258 C 346.625 212.854, 347.417 159.078, 324.441 112.953 C 320.088 104.213, 308.425 86, 307.182 86 C 306.803 86, 285.681 106.814, 260.246 132.254 M 132.602 256.964 C 89.841 299.793, 84.852 305.116, 86.081 306.597 C 88.852 309.936, 105.736 320.489, 116.472 325.592 C 128.541 331.328, 142.293 335.732, 157 338.569 C 169.989 341.075, 197.781 341.098, 210.500 338.613 C 228.073 335.180, 244.663 329.463, 258 322.245 C 267.093 317.323, 282 307.009, 281.999 305.641 C 281.998 305.013, 260.494 283.012, 234.211 256.750 C 192.720 215.289, 186.035 208.999, 183.463 208.995 C 180.883 208.990, 174.304 215.195, 132.602 256.964" stroke="none" fill="#fb0505" fill-rule="evenodd"/><path d="M 161 5.191 C 127.863 9.845, 97.624 22.681, 71.936 42.996 C 56.983 54.822, 40.019 73.996, 30.349 90 C 25.432 98.138, 17 115.314, 17 117.192 C 17 117.966, 16.605 119.027, 16.121 119.550 C 15.005 120.757, 10.529 135.641, 8.018 146.500 C 6.364 153.650, 4.039 175.270, 4.039 183.500 C 4.039 194.480, 6.642 214.884, 9.469 226.068 C 12.625 238.554, 15.009 246.189, 16.145 247.450 C 16.615 247.972, 17 248.984, 17 249.697 C 17 252.580, 26.018 269.907, 33.813 282 C 51.785 309.883, 80.978 334.602, 111.381 347.680 C 137.202 358.787, 162.152 363.622, 189 362.719 C 204.021 362.214, 208.100 361.698, 224 358.295 C 250.795 352.559, 276.273 339.886, 299.960 320.512 C 301.313 319.405, 306.038 314.889, 310.460 310.476 C 338.298 282.695, 354.763 250.214, 361.420 209.942 C 363.521 197.232, 363.554 168.050, 361.479 156.770 C 359.003 143.310, 356.973 135.045, 353.797 125.500 C 350.535 115.696, 341.709 96.751, 337.587 90.706 C 336.164 88.619, 335 86.701, 335 86.445 C 335 84.543, 318.787 64.627, 310.583 56.451 C 286.017 31.968, 257.868 16.493, 222.500 8.028 C 207.096 4.341, 176.954 2.951, 161 5.191 M 167.500 26.626 C 150.666 28.451, 129.415 34.779, 113.591 42.677 C 104.555 47.188, 88 57.667, 88 58.876 C 88 59.223, 109.039 80.544, 134.754 106.254 C 175.441 146.935, 181.893 153, 184.479 153 C 187.063 153, 193.469 146.986, 233.725 106.765 C 259.176 81.335, 280 60.061, 280 59.488 C 280 57.770, 262.174 46.374, 252 41.589 C 230.291 31.377, 212.126 27.114, 188 26.566 C 178.925 26.361, 169.700 26.387, 167.500 26.626 M 60.495 85.363 C 45.878 105.383, 38.580 119.642, 32.883 139.306 C 21.773 177.656, 25.027 215.933, 42.510 252.531 C 47.064 262.064, 57.793 279, 59.279 279 C 59.762 279, 81.721 257.402, 108.078 231.005 C 147.882 191.139, 156 182.547, 156 180.279 C 156 178.013, 148.075 169.618, 109.264 130.775 C 83.560 105.049, 62.295 84, 62.009 84 C 61.724 84, 61.042 84.613, 60.495 85.363 M 260.246 132.254 C 220.006 172.501, 214 178.894, 214 181.479 C 214 184.064, 220.070 190.525, 260.736 231.225 C 286.440 256.951, 308.023 278, 308.698 278 C 310.254 278, 316.389 268.983, 322.306 258 C 346.625 212.854, 347.417 159.078, 324.441 112.953 C 320.088 104.213, 308.425 86, 307.182 86 C 306.803 86, 285.681 106.814, 260.246 132.254 M 132.602 256.964 C 89.841 299.793, 84.852 305.116, 86.081 306.597 C 88.852 309.936, 105.736 320.489, 116.472 325.592 C 128.541 331.328, 142.293 335.732, 157 338.569 C 169.989 341.075, 197.781 341.098, 210.500 338.613 C 228.073 335.180, 244.663 329.463, 258 322.245 C 267.093 317.323, 282 307.009, 281.999 305.641 C 281.998 305.013, 260.494 283.012, 234.211 256.750 C 192.720 215.289, 186.035 208.999, 183.463 208.995 C 180.883 208.990, 174.304 215.195, 132.602 256.964" stroke="none" fill="#060404" fill-rule="evenodd"/></svg>
