<svg xmlns="http://www.w3.org/2000/svg" width="368" height="368" viewBox="0 0 368 368" version="1.1"><path d="M 175 6.575 C 139.817 10.447, 121.558 15.895, 96.194 30.090 C 89.214 33.997, 80.096 39.807, 79 41.047 C 78.725 41.358, 76.250 43.294, 73.500 45.349 C 66.492 50.586, 51.627 65.355, 46.173 72.500 C 43.654 75.800, 41.347 78.725, 41.047 79 C 40.205 79.770, 34 89.002, 34 89.485 C 34 89.719, 32.837 91.619, 31.416 93.706 C 24.812 103.405, 13.295 131.545, 11.645 142.014 C 11.377 143.714, 10.693 147.219, 10.126 149.802 C 5.623 170.290, 6.012 200.496, 11.081 224 C 11.615 226.475, 13.444 232.775, 15.145 238 C 30.041 283.757, 62.085 321.386, 104.218 342.598 C 113.432 347.238, 116.378 348.416, 130 352.907 C 159.247 362.550, 190.527 364.069, 222.500 357.399 C 246.407 352.412, 274.892 338.862, 294.479 323.159 C 336.952 289.106, 361.425 238.281, 361.484 184 C 361.500 169.594, 360.302 158.451, 357.398 146 C 354.687 134.375, 352.800 127.520, 352.030 126.500 C 351.615 125.950, 350.956 124.165, 350.564 122.532 C 348.654 114.566, 336.868 92.312, 327.930 79.798 C 321.669 71.030, 307.260 55.524, 298.414 48.033 C 273.842 27.226, 240.967 12.931, 206.500 8.067 C 198.194 6.895, 179.944 6.031, 175 6.575 M 171 28.992 C 117.318 32.941, 67.542 67.223, 44.031 116.436 C 32.931 139.671, 28.762 158.442, 28.806 185 C 28.846 209.624, 33.129 228.820, 43.434 250.554 C 65.339 296.756, 105.634 327.508, 157.500 337.607 C 171.499 340.333, 199.134 340.068, 213.500 337.071 C 245.549 330.384, 271.810 316.356, 294.017 294.062 C 317.355 270.632, 330.278 246, 337.593 211 C 340.060 199.196, 340.068 170.137, 337.607 157.500 C 329.002 113.305, 306.067 78.365, 269.698 54.045 C 241.939 35.482, 206.175 26.404, 171 28.992 M 170.480 59.950 C 161.565 60.973, 147.294 64.518, 139.343 67.686 C 134.558 69.592, 132.909 70.806, 131.945 73.133 C 130.863 75.746, 130.959 76.470, 132.703 78.814 C 135.464 82.526, 137.575 82.573, 147.698 79.146 C 152.539 77.507, 159.200 75.576, 162.500 74.855 C 170.506 73.106, 197.661 73.131, 205.500 74.894 C 250.212 84.955, 283.077 118.377, 291.535 162.390 C 294.377 177.181, 293.484 197.420, 289.346 212 C 287.784 217.500, 287.784 217.500, 282.287 206.500 C 276.189 194.297, 273.685 191, 270.514 191 C 267.427 191, 263.992 194.606, 264.046 197.789 C 264.072 199.280, 268.684 209.500, 274.296 220.500 C 287.138 245.671, 284.217 244.782, 310.727 231.584 C 333.063 220.464, 336.026 217.625, 330.961 212.189 C 327.859 208.859, 324.256 209.478, 312.352 215.387 C 306.384 218.351, 301.404 220.692, 301.287 220.591 C 301.169 220.490, 301.752 218.178, 302.582 215.453 C 304.937 207.719, 306.988 192.382, 306.988 182.500 C 306.988 123.764, 264.685 72.498, 207.227 61.603 C 197.305 59.722, 179.469 58.920, 170.480 59.950 M 58.330 133.924 C 38.465 143.681, 36 145.449, 36 149.934 C 36 152.668, 39.433 156, 42.251 156 C 43.489 156, 49.451 153.583, 55.501 150.629 C 61.550 147.675, 66.615 145.352, 66.756 145.468 C 66.897 145.584, 66.127 149.238, 65.046 153.589 C 60.954 170.062, 60.553 192.792, 64.070 208.939 C 74.402 256.377, 111.931 293.337, 160.204 303.616 C 171.799 306.085, 196.429 306.092, 207.844 303.630 C 216.848 301.688, 226.634 298.695, 231.611 296.362 C 237.520 293.592, 238.074 286.358, 232.570 283.850 C 230.509 282.911, 228.309 283.318, 219.300 286.306 C 205.781 290.789, 198.449 291.983, 184.381 291.992 C 159.616 292.009, 137.753 284.763, 118.268 270.081 C 82.519 243.143, 66.645 195.461, 79.292 153 C 80.632 148.500, 80.632 148.500, 87.066 161 C 93.500 173.500, 93.500 173.500, 97.392 173.500 C 100.483 173.500, 101.711 172.928, 103.359 170.721 C 105.433 167.943, 105.433 167.943, 95.021 147.043 C 85.165 127.259, 82.901 123.962, 79.203 124.009 C 78.816 124.014, 69.424 128.476, 58.330 133.924" stroke="none" fill="#050505" fill-rule="evenodd"/><path d="M 171 28.992 C 117.318 32.941, 67.542 67.223, 44.031 116.436 C 32.931 139.671, 28.762 158.442, 28.806 185 C 28.846 209.624, 33.129 228.820, 43.434 250.554 C 65.339 296.756, 105.634 327.508, 157.500 337.607 C 171.499 340.333, 199.134 340.068, 213.500 337.071 C 245.549 330.384, 271.810 316.356, 294.017 294.062 C 317.355 270.632, 330.278 246, 337.593 211 C 340.060 199.196, 340.068 170.137, 337.607 157.500 C 329.002 113.305, 306.067 78.365, 269.698 54.045 C 241.939 35.482, 206.175 26.404, 171 28.992 M 170.480 59.950 C 161.565 60.973, 147.294 64.518, 139.343 67.686 C 134.558 69.592, 132.909 70.806, 131.945 73.133 C 130.863 75.746, 130.959 76.470, 132.703 78.814 C 135.464 82.526, 137.575 82.573, 147.698 79.146 C 152.539 77.507, 159.200 75.576, 162.500 74.855 C 170.506 73.106, 197.661 73.131, 205.500 74.894 C 250.212 84.955, 283.077 118.377, 291.535 162.390 C 294.377 177.181, 293.484 197.420, 289.346 212 C 287.784 217.500, 287.784 217.500, 282.287 206.500 C 276.189 194.297, 273.685 191, 270.514 191 C 267.427 191, 263.992 194.606, 264.046 197.789 C 264.072 199.280, 268.684 209.500, 274.296 220.500 C 287.138 245.671, 284.217 244.782, 310.727 231.584 C 333.063 220.464, 336.026 217.625, 330.961 212.189 C 327.859 208.859, 324.256 209.478, 312.352 215.387 C 306.384 218.351, 301.404 220.692, 301.287 220.591 C 301.169 220.490, 301.752 218.178, 302.582 215.453 C 304.937 207.719, 306.988 192.382, 306.988 182.500 C 306.988 123.764, 264.685 72.498, 207.227 61.603 C 197.305 59.722, 179.469 58.920, 170.480 59.950 M 58.330 133.924 C 38.465 143.681, 36 145.449, 36 149.934 C 36 152.668, 39.433 156, 42.251 156 C 43.489 156, 49.451 153.583, 55.501 150.629 C 61.550 147.675, 66.615 145.352, 66.756 145.468 C 66.897 145.584, 66.127 149.238, 65.046 153.589 C 60.954 170.062, 60.553 192.792, 64.070 208.939 C 74.402 256.377, 111.931 293.337, 160.204 303.616 C 171.799 306.085, 196.429 306.092, 207.844 303.630 C 216.848 301.688, 226.634 298.695, 231.611 296.362 C 237.520 293.592, 238.074 286.358, 232.570 283.850 C 230.509 282.911, 228.309 283.318, 219.300 286.306 C 205.781 290.789, 198.449 291.983, 184.381 291.992 C 159.616 292.009, 137.753 284.763, 118.268 270.081 C 82.519 243.143, 66.645 195.461, 79.292 153 C 80.632 148.500, 80.632 148.500, 87.066 161 C 93.500 173.500, 93.500 173.500, 97.392 173.500 C 100.483 173.500, 101.711 172.928, 103.359 170.721 C 105.433 167.943, 105.433 167.943, 95.021 147.043 C 85.165 127.259, 82.901 123.962, 79.203 124.009 C 78.816 124.014, 69.424 128.476, 58.330 133.924" stroke="none" fill="#7c7c7c" fill-rule="evenodd"/></svg>
