<?xml version="1.0" standalone="no"?>
<!DOCTYPE svg PUBLIC "-//W3C//DTD SVG 20010904//EN"
 "http://www.w3.org/TR/2001/REC-SVG-20010904/DTD/svg10.dtd">
<svg version="1.0" xmlns="http://www.w3.org/2000/svg"
 width="3600.000000pt" height="2026.000000pt" viewBox="0 0 3600.000000 2026.000000"
 preserveAspectRatio="xMidYMid meet">
<metadata>
Created by potrace 1.13, written by Peter Selinger 2001-2015
</metadata>
<g transform="translate(0.000000,2026.000000) scale(0.100000,-0.100000)"
fill="#000000" stroke="none">
<path d="M6890 14748 c-374 -61 -642 -197 -894 -453 -130 -132 -195 -226 -282
-405 -25 -52 -50 -103 -55 -112 -5 -10 -9 -25 -9 -33 0 -8 -4 -23 -9 -33 -13
-24 -40 -130 -63 -242 -19 -97 -19 -8649 0 -8760 47 -267 154 -512 311 -714
76 -97 301 -302 369 -337 15 -7 45 -25 67 -39 149 -97 376 -171 615 -200 97
-11 8023 -12 13370 0 2472 5 3267 10 3305 19 28 6 70 17 95 23 483 115 890
476 1066 946 20 53 48 147 63 207 l26 110 0 4355 0 4355 -23 105 c-34 151 -52
205 -123 355 -109 233 -300 454 -515 596 -178 119 -288 169 -484 220 -198 52
353 49 -8530 48 -4832 -1 -8268 -5 -8300 -11z m16718 -175 c77 -15 83 -18 77
-37 -3 -12 -13 -70 -21 -131 -48 -351 -155 -786 -306 -1245 -78 -240 -235
-657 -303 -805 -12 -27 -26 -61 -30 -74 l-7 -24 -1607 7 c-883 3 -2279 10
-3101 16 -822 5 -2233 14 -3135 20 -902 5 -2346 15 -3210 20 -863 5 -2330 14
-3260 19 -929 6 -1981 13 -2338 17 l-647 7 1 311 c3 411 14 765 27 807 5 19
15 61 22 94 7 33 17 64 22 69 4 6 8 18 8 28 0 10 4 26 9 36 5 9 17 35 26 57
47 111 92 190 160 280 172 225 405 395 660 481 49 16 77 23 180 46 36 8 2270
13 8200 18 4483 3 8227 5 8320 3 98 -3 205 -11 253 -20z m206 -426 c-9 -321
-39 -799 -80 -1257 -8 -96 -19 -224 -25 -285 -8 -98 -33 -322 -60 -550 -5 -44
-13 -124 -19 -179 -16 -166 -63 -480 -91 -606 -5 -25 -12 -62 -16 -83 -3 -21
-9 -40 -14 -42 -4 -3 -34 7 -66 21 -32 15 -116 52 -188 83 -222 98 -467 215
-472 227 -2 7 31 76 73 155 193 358 414 852 556 1244 87 240 209 625 254 803
10 39 22 72 26 72 4 0 9 -37 9 -82 1 -46 3 -74 5 -63 25 127 35 185 44 270 11
97 18 153 40 302 5 39 10 87 10 105 0 22 3 28 9 20 4 -8 7 -77 5 -155z m366
-537 c8 -11 20 -20 27 -20 22 0 105 -89 99 -106 -3 -8 -1 -14 5 -14 18 0 41
-30 35 -45 -3 -8 -1 -15 5 -15 18 0 41 -30 35 -45 -3 -9 1 -15 10 -15 11 0 15
-6 11 -20 -3 -11 -1 -22 4 -25 14 -9 41 -73 35 -84 -3 -5 1 -17 10 -25 9 -9
13 -23 10 -31 -3 -9 1 -15 10 -15 11 0 15 -8 12 -29 -1 -16 3 -36 11 -45 7 -8
11 -22 8 -30 -3 -8 1 -20 9 -27 8 -7 14 -19 12 -28 -1 -9 4 -31 11 -49 8 -18
11 -35 8 -39 -4 -3 0 -18 9 -34 8 -16 13 -41 12 -56 -1 -16 3 -37 10 -49 6
-11 11 -29 11 -40 -1 -10 2 -30 6 -44 4 -14 8 -34 10 -45 1 -11 7 -39 14 -62
6 -23 11 -45 9 -50 -1 -4 4 -26 10 -49 7 -23 12 -52 12 -65 1 -65 16 -129 31
-129 5 0 10 53 12 118 l3 117 2 -127 2 -127 -391 -1 -392 -1 7 72 c14 156 36
718 36 967 1 145 4 270 7 278 3 8 11 14 19 14 8 0 14 5 14 10 0 6 9 10 20 10
11 0 20 5 20 10 0 6 28 10 63 10 51 0 65 -4 77 -20z m-293 -217 c-3 -10 -5 -4
-5 12 0 17 2 24 5 18 2 -7 2 -21 0 -30z m-2 -250 c-4 -126 -10 -268 -15 -318
l-7 -90 -2 110 c-1 116 20 525 27 525 3 0 2 -102 -3 -227z m-16055 -1063 c888
-5 2306 -14 3150 -19 844 -6 1987 -13 2540 -16 553 -3 1286 -7 1630 -10 344
-3 1300 -10 2125 -15 825 -5 2015 -13 2645 -17 630 -5 1553 -8 2052 -8 825 0
908 -1 908 -16 0 -28 -183 -380 -348 -669 -140 -243 -398 -641 -532 -820 -14
-19 -60 -80 -101 -135 -232 -312 -535 -663 -794 -920 -201 -199 -374 -360
-510 -477 -16 -14 -64 -54 -105 -90 -41 -35 -124 -104 -185 -152 -60 -48 -117
-93 -125 -99 -8 -7 -31 -23 -50 -37 -19 -13 -37 -27 -40 -30 -15 -16 -154
-116 -310 -222 -58 -39 -106 -75 -108 -80 -2 -4 -8 -8 -13 -8 -5 0 -63 -36
-129 -80 -102 -68 -248 -159 -355 -220 -16 -10 -57 -33 -90 -52 -230 -134
-600 -323 -857 -437 -27 -12 -69 -30 -95 -42 -58 -25 -111 -48 -138 -59 -11
-4 -36 -15 -55 -23 -19 -8 -78 -32 -130 -52 -52 -20 -105 -41 -117 -46 -58
-23 -72 -28 -128 -49 -33 -12 -68 -26 -77 -31 -10 -5 -27 -9 -37 -9 -11 0 -22
-4 -25 -8 -3 -4 -28 -14 -56 -22 -28 -8 -53 -18 -56 -22 -3 -4 -16 -8 -29 -8
-13 0 -27 -4 -30 -10 -3 -5 -15 -10 -26 -10 -10 0 -27 -4 -37 -9 -9 -5 -51
-19 -92 -31 -41 -12 -84 -26 -95 -30 -11 -4 -40 -13 -65 -20 -25 -7 -56 -16
-70 -20 -46 -13 -94 -27 -140 -39 -25 -7 -59 -17 -76 -22 -17 -5 -40 -9 -52
-9 -11 0 -24 -4 -27 -10 -3 -5 -19 -10 -35 -10 -16 0 -32 -4 -35 -10 -3 -6
-19 -10 -35 -10 -16 0 -32 -4 -35 -10 -3 -5 -16 -10 -28 -10 -12 0 -33 -9 -47
-20 -32 -24 -28 -26 145 -50 95 -14 170 -27 230 -40 28 -6 67 -14 88 -17 20
-3 40 -9 43 -14 3 -5 16 -9 30 -9 13 0 32 -4 42 -9 9 -5 37 -15 62 -22 25 -7
49 -16 54 -21 6 -4 18 -8 28 -8 10 0 26 -4 36 -9 9 -5 28 -13 42 -18 60 -24
80 -33 165 -74 50 -24 117 -59 150 -79 33 -19 72 -41 86 -48 44 -23 241 -173
303 -232 146 -136 253 -259 321 -369 6 -8 22 -34 36 -56 64 -98 166 -338 189
-445 42 -192 44 -207 43 -400 0 -170 -4 -211 -26 -317 -33 -157 -74 -277 -148
-433 -66 -137 -73 -149 -237 -401 l-115 -177 -501 5 c-275 2 -514 7 -531 10
-16 3 -2269 9 -5005 13 -3481 5 -4992 10 -5030 18 -84 16 -173 39 -205 52 -11
4 -36 14 -55 21 -62 22 -164 72 -207 101 -23 15 -45 28 -50 28 -4 0 -21 12
-38 26 -16 14 -42 33 -57 42 -51 30 -225 218 -284 307 -89 133 -155 278 -192
420 -5 22 -16 60 -22 85 -17 62 -20 493 -22 4233 l-3 3177 245 0 c135 0 972
-5 1860 -10z m16870 -544 c0 -280 -3 -512 -5 -515 -3 -2 -5 225 -6 505 0 361
-3 502 -11 484 -5 -14 -9 -60 -8 -103 0 -42 -3 -83 -7 -90 -8 -13 -10 -47 -11
-235 -1 -62 -4 -117 -8 -124 -7 -11 -8 -83 -12 -950 -1 -367 -5 -529 -13 -533
-7 -5 -10 -89 -7 -274 1 -146 0 -567 -2 -936 -3 -368 -8 -1032 -10 -1475 -8
-1078 -15 -1608 -23 -1650 -3 -19 -6 -85 -6 -147 0 -62 -5 -132 -12 -155 -6
-24 -12 -65 -14 -93 -1 -27 -5 -75 -8 -105 -3 -30 -6 -67 -6 -83 0 -15 -7 -40
-14 -55 -8 -15 -12 -32 -10 -39 2 -6 -3 -25 -11 -41 -8 -16 -13 -32 -9 -35 3
-4 0 -21 -8 -39 -7 -18 -12 -40 -11 -49 2 -9 -4 -21 -12 -28 -7 -6 -12 -21 -9
-31 3 -11 1 -20 -4 -20 -5 0 -16 -23 -23 -50 -7 -28 -17 -50 -22 -50 -4 0 -8
-6 -8 -12 0 -24 -90 -195 -115 -218 -14 -13 -25 -29 -25 -37 0 -7 -4 -13 -10
-13 -5 0 -10 -8 -10 -17 0 -21 -241 -263 -261 -263 -8 0 -20 -9 -27 -20 -7
-11 -20 -20 -30 -20 -9 0 -23 -9 -30 -20 -7 -11 -21 -20 -31 -20 -10 0 -21 -6
-24 -14 -5 -12 -142 -86 -160 -86 -4 0 -28 -10 -52 -21 -25 -12 -49 -19 -52
-15 -4 3 -14 -1 -24 -10 -10 -9 -25 -14 -33 -11 -9 4 -22 -1 -31 -9 -8 -9 -21
-14 -28 -11 -6 2 -25 -2 -41 -10 -16 -8 -39 -13 -53 -10 -13 2 -30 -2 -38 -10
-8 -8 -30 -13 -52 -12 -21 2 -48 -3 -61 -10 -13 -7 -38 -11 -55 -10 -18 1 -51
-3 -75 -10 -24 -7 -71 -12 -105 -13 -34 0 -96 -3 -137 -6 -109 -9 -733 -17
-1190 -16 -529 1 -553 1 -870 -5 -311 -6 -774 -14 -960 -17 -69 -1 -132 -4
-141 -8 -17 -8 -525 -2 -609 6 -30 3 -80 8 -110 10 -30 3 -66 8 -80 12 -14 4
-34 8 -44 7 -10 0 -31 6 -46 14 -15 8 -30 12 -33 9 -7 -8 -67 18 -67 28 0 5
-9 8 -20 8 -11 0 -20 7 -20 15 0 8 5 15 10 15 6 0 44 23 85 50 41 27 77 50 80
50 7 0 509 337 565 380 19 15 60 44 90 66 68 50 329 245 350 261 8 7 44 35 80
63 74 58 62 48 200 160 58 47 107 87 110 90 3 3 30 25 60 50 30 25 62 52 70
60 8 9 44 40 80 70 36 30 72 62 80 70 8 8 58 53 110 100 52 47 97 88 100 92 3
4 21 13 40 21 29 11 118 12 535 5 795 -15 2693 -14 2860 0 76 7 141 15 144 18
17 17 -80 22 -647 33 -461 10 -768 11 -1162 3 -1036 -19 -1633 -20 -1740 -5
l-65 10 64 1 63 2 72 73 c39 40 76 75 81 78 6 2 9 6 8 9 0 3 5 11 13 18 8 7
14 10 14 6 0 -4 13 5 30 21 16 15 27 32 24 37 -3 5 0 7 8 6 7 -2 12 3 11 9 -2
7 3 12 10 10 6 -1 11 4 10 10 -2 7 3 12 10 10 6 -1 11 4 10 10 -2 7 3 12 10
10 6 -1 11 4 10 10 -2 7 3 12 10 10 6 -1 11 3 10 8 -1 10 29 43 34 38 2 -2 3
-1 3 2 0 2 51 57 113 121 61 64 111 120 109 126 -1 5 2 7 7 4 5 -4 12 -2 16 4
3 5 0 10 -9 10 -8 0 -17 6 -19 13 -3 6 -6 -3 -6 -21 -1 -19 -5 -31 -11 -27 -5
3 -10 1 -10 -4 0 -6 -106 -117 -235 -247 -129 -129 -235 -230 -235 -224 0 6
23 33 50 60 28 27 50 55 50 62 0 8 9 20 20 28 11 8 20 22 20 32 0 11 7 18 20
18 13 0 20 7 20 18 0 10 9 24 20 32 11 8 20 21 20 28 0 8 14 27 30 42 17 15
30 33 30 40 0 6 23 33 50 60 28 27 50 55 50 62 0 8 9 20 20 28 11 8 20 21 20
30 0 9 9 22 20 30 11 8 20 21 20 30 0 9 9 22 20 30 11 8 20 22 20 32 0 10 5
18 10 18 6 0 10 8 10 18 0 10 9 24 20 32 11 8 20 22 20 32 0 10 5 18 10 18 6
0 10 8 10 18 0 10 9 24 20 32 11 8 20 22 20 32 0 10 5 18 10 18 6 0 10 9 10
20 0 11 5 20 10 20 6 0 10 9 10 20 0 11 5 20 10 20 6 0 10 9 10 20 0 11 5 20
10 20 6 0 10 9 10 20 0 11 5 20 10 20 6 0 10 9 10 20 0 11 5 20 10 20 6 0 10
9 10 20 0 11 5 20 10 20 6 0 10 5 10 10 0 6 -19 11 -42 11 -36 2 -33 3 22 10
36 4 353 5 705 1 1259 -14 1945 -6 1945 23 0 37 -839 49 -1835 27 -225 -5
-415 -5 -421 -1 -5 5 -83 9 -172 10 l-161 1 12 21 c7 12 20 29 30 38 9 9 17
23 17 30 0 8 9 21 20 29 11 8 20 22 20 32 0 10 5 18 10 18 6 0 10 9 10 20 0
11 5 20 10 20 6 0 10 8 10 18 0 10 9 24 20 32 11 8 20 22 20 32 0 10 5 18 10
18 6 0 10 8 10 18 0 10 9 24 20 32 11 8 20 22 20 32 0 10 5 18 10 18 6 0 10 8
10 18 0 10 9 24 20 32 11 8 20 21 20 30 0 9 9 22 20 30 11 8 20 22 20 32 0 10
5 18 10 18 6 0 10 9 10 20 0 11 5 20 10 20 6 0 10 8 10 18 0 10 9 24 20 32 11
8 20 22 20 32 0 10 5 18 10 18 6 0 10 9 10 20 0 11 5 20 10 20 6 0 10 9 10 20
0 11 5 20 10 20 6 0 10 9 10 20 0 11 5 20 10 20 6 0 10 9 10 20 0 11 5 20 10
20 6 0 10 9 10 20 0 11 5 20 10 20 6 0 10 14 10 30 0 17 5 30 10 30 6 0 10 14
10 30 0 17 5 30 10 30 6 0 10 9 10 20 0 11 5 20 11 20 7 0 9 12 5 35 -6 31 -5
34 11 28 15 -6 16 -4 6 8 -9 11 -8 20 7 39 11 14 20 31 20 38 0 6 4 12 9 12 5
0 14 14 21 30 7 17 16 30 21 30 5 0 9 5 9 11 0 5 18 37 40 69 22 32 40 64 40
69 0 6 4 11 9 11 5 0 11 8 14 18 6 17 37 72 47 82 3 3 11 15 18 28 6 12 18 32
25 45 6 12 14 24 17 27 3 3 11 15 18 28 6 12 18 32 25 45 6 12 14 24 17 27 6
6 27 43 54 95 12 22 23 42 26 45 6 6 45 77 84 154 17 34 33 63 36 66 5 4 175
346 249 500 l17 35 129 3 c72 2 266 -2 433 -9 248 -10 329 -10 448 1 248 23
158 61 -151 63 -229 2 -691 -9 -772 -18 -45 -6 -63 -4 -63 4 0 10 10 36 62
151 11 25 24 54 28 65 4 11 15 37 24 58 9 20 23 54 32 75 9 20 21 48 26 62 6
14 14 33 19 42 5 10 9 25 9 33 0 8 4 23 9 33 8 16 24 53 42 97 4 11 13 38 20
60 7 22 17 44 21 49 4 6 8 20 8 32 0 13 5 26 10 29 6 3 10 17 10 30 0 13 5 27
10 30 6 3 10 17 10 30 0 13 5 27 10 30 6 3 10 15 10 26 0 10 4 27 9 37 5 9 17
43 26 75 9 31 21 57 25 57 4 0 6 9 3 20 -3 11 2 35 11 54 9 19 16 42 17 53 0
10 3 13 6 6 6 -16 43 -17 43 -2 0 6 7 4 15 -5 8 -8 15 -34 16 -58 0 -32 2 -38
8 -23 5 11 6 24 4 28 -3 5 2 28 12 53 9 24 14 48 11 53 -3 5 1 14 10 21 12 11
48 11 190 0 175 -12 285 -9 337 12 45 17 32 34 -37 46 -79 15 -144 15 -317 1
-75 -7 -143 -9 -151 -6 -15 5 -16 0 12 170 17 99 28 170 39 242 6 39 15 102
21 140 23 158 69 578 70 648 l0 28 400 -3 401 -3 -1 -509z m-1838 -350 c26
-11 49 -26 52 -33 11 -28 -293 -723 -317 -723 -5 0 -73 32 -149 71 -77 39
-144 67 -149 62 -14 -14 -89 -165 -89 -180 0 -8 79 -52 193 -107 105 -51 299
-146 429 -210 130 -64 241 -116 246 -116 8 0 102 169 102 184 0 6 -202 107
-338 169 -34 16 -62 32 -62 36 0 5 32 74 70 155 63 131 194 431 230 526 7 19
17 39 21 43 6 8 333 -133 352 -152 4 -4 4 -19 -1 -32 -6 -13 -15 -42 -21 -64
-35 -133 -141 -476 -161 -520 -5 -11 -16 -40 -24 -65 -28 -87 -74 -207 -164
-430 -128 -318 -193 -462 -346 -770 -778 -1558 -2040 -3057 -3710 -4405 -27
-22 -156 -131 -285 -242 -130 -112 -239 -203 -243 -203 -13 0 -9 33 13 126 74
311 77 651 10 929 -6 22 -13 54 -16 70 -4 17 -10 39 -15 50 -4 11 -18 54 -31
95 -12 41 -26 79 -31 85 -4 5 -8 15 -8 22 0 33 -155 343 -172 343 -4 0 -8 6
-8 13 0 7 -8 22 -17 33 -10 10 -30 35 -45 55 -73 99 -280 279 -455 397 -34 23
-65 42 -68 42 -4 0 -25 13 -48 28 -58 39 -226 120 -327 157 -25 9 -54 21 -65
25 -11 5 -38 14 -60 21 -22 6 -48 15 -57 20 -10 5 -29 9 -42 9 -14 0 -27 4
-30 9 -3 5 -20 11 -38 14 -18 3 -53 10 -78 16 -133 28 -237 44 -370 58 -59 6
-62 8 -30 14 53 10 121 26 165 39 54 15 104 28 140 35 17 4 39 10 50 14 42 17
92 31 108 31 10 0 25 4 35 9 16 8 31 13 132 41 25 7 54 16 65 20 11 4 92 31
180 59 88 29 169 56 180 60 11 5 36 14 55 21 19 7 44 16 55 20 11 4 36 13 55
20 19 7 46 17 60 22 34 14 55 22 125 48 84 31 94 35 150 60 28 12 59 26 70 30
25 10 75 31 138 59 26 12 68 30 95 42 68 30 266 124 347 166 110 55 306 158
350 183 22 13 65 36 95 53 30 16 60 33 65 37 6 4 27 17 48 29 86 48 107 61
171 100 36 23 96 60 134 83 85 52 350 229 406 271 24 18 78 57 121 87 43 30
83 60 89 65 6 6 38 30 71 55 63 47 306 240 315 249 3 4 34 31 70 61 36 30 67
57 70 60 3 3 21 18 40 34 142 117 568 534 735 721 139 154 156 173 241 275
312 372 618 799 849 1185 26 44 54 90 61 102 l14 22 78 -35 c42 -20 98 -46
124 -58z m855 -88 c-3 -8 -6 -5 -6 6 -1 11 2 17 5 13 3 -3 4 -12 1 -19z m-20
-100 c-3 -7 -5 -2 -5 12 0 14 2 19 5 13 2 -7 2 -19 0 -25z m-20 -95 c-3 -10
-5 -2 -5 17 0 19 2 27 5 18 2 -10 2 -26 0 -35z m21 -64 l37 -2 -40 -6 c-48 -8
-56 -5 -48 16 4 11 8 13 11 5 2 -7 20 -13 40 -13z m-61 -101 c-2 -13 -4 -5 -4
17 -1 22 1 32 4 23 2 -10 2 -28 0 -40z m-1357 -2858 c0 -5 -5 -10 -11 -10 -5
0 -7 5 -4 10 3 6 8 10 11 10 2 0 4 -4 4 -10z m-1593 -2526 c-3 -3 -12 -4 -19
-1 -8 3 -5 6 6 6 11 1 17 -2 13 -5z m-1099 -1761 c-87 -2 -229 -2 -315 0 -87
1 -16 3 157 3 173 0 244 -2 158 -3z m535 0 c-57 -2 -149 -2 -205 0 -57 1 -11
3 102 3 113 0 159 -2 103 -3z"/>
<path d="M24030 13589 c0 -5 5 -7 10 -4 6 3 10 8 10 11 0 2 -4 4 -10 4 -5 0
-10 -5 -10 -11z"/>
<path d="M24165 13590 c3 -5 8 -10 11 -10 2 0 4 5 4 10 0 6 -5 10 -11 10 -5 0
-7 -4 -4 -10z"/>
<path d="M23989 13563 c-13 -16 -12 -17 4 -4 9 7 17 15 17 17 0 8 -8 3 -21
-13z"/>
<path d="M24210 13566 c0 -2 7 -9 15 -16 9 -7 15 -8 15 -2 0 5 -7 12 -15 16
-8 3 -15 4 -15 2z"/>
<path d="M18414 11029 c-6 -10 4 -72 25 -156 l9 -31 -1682 -4 -1681 -4 -133
33 c-271 66 -472 103 -737 135 -146 17 -659 17 -780 0 -221 -31 -394 -75 -573
-146 l-93 -37 -1037 -2 -1037 -3 -145 47 c-188 61 -360 103 -540 130 -195 30
-664 33 -860 6 -240 -34 -406 -75 -601 -147 -59 -22 -120 -40 -137 -40 -21 0
-30 -4 -27 -12 3 -8 -29 -30 -82 -58 -201 -104 -399 -254 -568 -432 -366 -385
-576 -868 -657 -1508 -17 -140 -17 -849 0 -1010 7 -63 15 -146 18 -185 3 -38
9 -79 14 -90 5 -11 11 -40 14 -65 3 -25 10 -70 16 -100 6 -30 14 -72 17 -93 3
-20 9 -40 14 -43 5 -3 9 -18 9 -34 0 -16 5 -32 10 -35 6 -3 10 -19 10 -35 0
-16 5 -32 10 -35 6 -3 10 -17 10 -30 0 -13 5 -27 10 -30 6 -3 10 -15 10 -26 0
-10 4 -27 9 -37 9 -18 26 -58 44 -102 5 -14 13 -33 18 -42 5 -10 9 -25 9 -33
0 -8 3 -15 8 -15 8 0 32 -49 32 -67 0 -7 5 -13 10 -13 6 0 10 -9 10 -20 0 -11
5 -20 10 -20 6 0 10 -5 10 -10 0 -6 17 -38 38 -73 21 -34 45 -73 53 -87 8 -14
17 -27 20 -30 3 -3 24 -32 46 -65 23 -33 49 -69 60 -80 10 -12 43 -50 73 -85
69 -82 118 -131 200 -200 35 -30 76 -65 90 -77 13 -13 28 -23 32 -23 3 0 13
-6 20 -13 21 -21 166 -117 177 -117 5 0 11 -3 13 -8 5 -13 297 -152 318 -152
6 0 19 -4 30 -10 11 -6 29 -14 40 -20 11 -5 29 -10 39 -10 11 0 23 -4 26 -10
3 -5 19 -10 35 -10 16 0 32 -4 35 -10 3 -5 21 -10 40 -10 19 0 37 -4 40 -10 3
-5 21 -10 39 -10 17 0 36 -4 42 -9 5 -5 29 -12 54 -15 25 -3 77 -10 115 -16
280 -43 678 -43 955 -1 132 20 170 28 177 34 3 4 -17 7 -45 7 -29 0 -52 -4
-52 -9 0 -5 -33 -11 -72 -14 -40 -4 -89 -8 -108 -11 -129 -16 -538 -25 -558
-12 -4 2 -52 7 -107 10 -55 4 -122 11 -150 16 -27 5 -102 19 -165 31 -63 12
-119 26 -124 30 -6 5 -19 9 -30 9 -21 0 -80 17 -108 31 -10 5 -27 9 -37 9 -11
0 -23 5 -26 10 -3 6 -17 10 -30 10 -13 0 -27 5 -30 10 -3 6 -13 10 -22 10 -21
0 -295 135 -350 172 -23 15 -45 28 -48 28 -8 0 -25 12 -160 119 -151 120 -267
236 -381 386 -39 51 -114 162 -114 169 0 3 -11 22 -25 42 -29 43 -135 257
-135 273 0 6 -9 26 -20 46 -11 20 -20 44 -20 55 0 10 -5 22 -10 25 -5 3 -10
17 -10 31 0 13 -4 24 -10 24 -5 0 -10 13 -10 29 0 17 -5 33 -10 36 -6 3 -10
17 -10 30 0 13 -4 27 -10 30 -13 8 -13 65 0 65 6 0 10 -10 10 -22 0 -23 16
-81 31 -110 5 -10 9 -26 9 -36 0 -10 4 -22 8 -27 4 -6 14 -28 21 -50 13 -40
31 -85 57 -139 8 -16 14 -35 14 -43 0 -7 5 -13 10 -13 6 0 10 -6 10 -13 0 -18
24 -67 33 -67 4 0 7 -9 7 -20 0 -11 3 -20 8 -20 4 0 13 -15 21 -32 8 -18 32
-59 53 -90 21 -31 38 -62 38 -67 0 -6 4 -11 8 -11 4 0 16 -13 25 -30 10 -16
23 -35 30 -42 7 -7 23 -28 36 -47 64 -90 236 -263 351 -351 25 -19 47 -38 50
-41 11 -13 160 -109 169 -109 5 0 11 -3 13 -7 6 -15 178 -101 286 -144 12 -5
32 -13 45 -18 12 -6 54 -20 92 -32 39 -12 79 -25 90 -30 24 -9 67 -19 118 -26
20 -3 40 -9 43 -14 3 -5 25 -9 49 -9 24 0 47 -4 50 -10 3 -5 32 -10 64 -10 31
0 61 -4 67 -9 24 -23 550 -32 734 -13 108 11 183 23 280 42 30 6 72 14 93 17
20 3 40 9 43 14 3 5 18 9 34 9 16 0 32 5 35 10 3 6 17 10 31 10 13 0 32 4 42
9 9 5 35 14 57 20 41 12 56 18 110 41 17 7 41 17 55 23 14 5 33 13 42 18 10 5
25 9 33 9 8 0 15 5 15 10 0 6 6 10 14 10 14 0 132 59 206 104 25 15 53 29 63
33 9 3 17 9 17 14 0 5 6 9 13 9 6 0 34 17 61 36 l48 36 -7 72 c-7 76 -1 90 41
114 15 8 20 78 23 351 1 120 -13 114 129 52 129 -57 330 -124 507 -168 l150
-38 1 -167 c0 -148 2 -169 19 -188 10 -11 24 -20 32 -20 10 0 13 -21 13 -86 0
-93 10 -113 57 -114 12 0 25 -4 28 -10 3 -5 17 -10 30 -10 13 0 27 -4 30 -10
3 -5 15 -10 26 -10 10 0 27 -4 37 -9 9 -5 37 -15 62 -21 25 -7 54 -16 65 -20
11 -4 33 -11 50 -16 36 -11 42 -33 44 -160 l1 -91 -907 -8 c-500 -4 -1776 -9
-2838 -11 -1062 -2 -2009 -4 -2105 -5 l-175 -2 210 -7 c116 -4 901 -10 1745
-14 844 -3 1990 -11 2545 -18 556 -6 1123 -8 1260 -6 138 3 256 3 263 1 7 -3
12 -25 12 -59 0 -30 5 -54 10 -54 6 0 10 11 10 24 0 31 18 78 33 88 7 4 1011
8 2232 8 1221 0 2252 2 2290 5 39 2 214 7 390 10 176 4 338 11 360 15 40 8 40
8 -15 9 -478 12 -1842 21 -3353 22 -1205 1 -1890 5 -1893 11 -4 6 -1 20 6 33
13 24 8 55 -9 55 -5 0 -12 -8 -14 -17 -3 -10 -3 7 0 37 3 30 9 59 14 65 5 5 9
18 9 29 0 18 13 65 30 111 5 11 11 28 14 38 6 20 33 22 87 6 l38 -12 -45 -66
c-24 -36 -44 -71 -44 -77 0 -10 44 -27 105 -39 17 -3 50 -11 75 -16 83 -18
242 -46 340 -59 418 -55 859 -41 1225 40 28 6 65 14 83 17 18 3 35 9 38 14 3
5 18 9 34 9 16 0 32 4 35 10 3 6 15 10 26 10 10 0 27 4 37 9 9 5 31 14 47 21
17 7 38 16 47 21 10 5 25 9 33 9 8 0 15 5 15 10 0 6 7 10 15 10 14 0 53 18 65
30 3 3 19 12 35 20 134 66 317 224 405 350 13 19 29 40 35 46 5 6 19 29 30 52
20 43 35 54 35 27 0 -8 -4 -15 -10 -15 -5 0 -10 -7 -10 -15 0 -8 -4 -15 -10
-15 -5 0 -10 -9 -10 -20 0 -11 -4 -20 -8 -20 -5 0 -15 -12 -23 -27 -8 -16 -16
-30 -20 -33 -3 -3 -30 -36 -61 -75 -51 -63 -162 -175 -173 -175 -4 0 -29 -19
-59 -45 -6 -5 -23 -16 -38 -24 -16 -8 -28 -18 -28 -23 0 -4 -9 -8 -20 -8 -11
0 -20 -4 -20 -10 0 -5 -7 -10 -16 -10 -8 0 -12 -5 -9 -11 5 -7 12 -6 23 4 10
8 25 17 35 20 17 6 137 85 147 96 3 4 22 19 44 35 49 37 135 122 172 172 16
22 37 48 47 58 9 11 17 26 17 33 0 7 4 13 8 13 5 0 20 21 33 48 13 26 27 49
32 50 4 2 7 12 7 23 0 10 5 19 10 19 6 0 10 7 10 15 0 8 5 24 10 35 6 11 15
29 20 40 6 11 10 27 10 35 0 8 4 23 9 33 15 31 31 88 31 115 0 14 5 29 10 32
6 3 10 28 10 54 0 80 -12 78 375 84 317 5 422 14 370 30 -36 12 -336 27 -522
27 -209 0 -218 3 -202 67 17 68 23 450 10 574 -55 500 -311 864 -766 1092
-263 131 -424 178 -1015 297 -401 80 -522 111 -670 170 -217 86 -306 169 -390
365 -8 19 -15 92 -18 191 -4 151 -3 163 18 205 46 91 129 181 232 250 66 45
216 119 241 119 9 0 18 4 21 9 3 5 18 11 33 14 16 3 48 11 73 17 117 28 465
63 535 54 17 -3 89 -9 160 -14 126 -10 179 -17 295 -40 30 -6 72 -14 93 -17
20 -3 40 -9 43 -14 3 -5 14 -9 25 -9 23 0 119 -30 119 -37 0 -3 -35 -2 -77 2
-75 7 -98 2 -39 -9 16 -3 34 -10 40 -16 5 -5 20 -10 33 -10 13 0 31 -4 41 -9
9 -5 35 -14 57 -20 41 -13 76 -26 107 -42 10 -5 25 -9 33 -9 8 0 23 -4 33 -9
9 -5 28 -13 42 -19 82 -33 181 -77 287 -128 50 -24 96 -44 101 -44 23 0 32
976 10 999 -11 10 33 12 232 7 474 -11 1502 -15 2173 -8 374 4 683 5 687 2 5
-3 19 -50 30 -105 37 -170 97 -384 130 -462 6 -13 15 -34 20 -48 6 -14 15 -37
22 -51 16 -33 0 -44 -68 -44 -76 0 -217 -27 -318 -61 -257 -86 -492 -258 -661
-484 -65 -85 -115 -161 -115 -171 0 -3 -9 -19 -21 -35 -26 -36 -17 -49 46 -74
50 -18 55 -33 26 -73 -29 -41 -81 -132 -81 -141 0 -5 39 -25 88 -45 111 -45
316 -131 457 -191 61 -25 116 -47 124 -48 8 -1 20 21 32 57 74 232 240 412
444 486 69 25 103 30 200 30 97 0 132 -5 200 -30 20 -7 145 -69 275 -136 96
-50 171 -45 233 14 58 55 73 141 37 212 l-20 39 25 49 c29 58 31 97 9 150 -21
52 -49 79 -219 210 -262 203 -458 416 -604 654 -53 88 -151 278 -151 294 0 9
335 13 1378 18 757 3 1413 8 1457 11 44 2 169 7 278 11 109 3 196 8 194 11 -7
7 -2401 32 -3192 33 l-160 0 -23 63 c-13 34 -27 70 -33 79 -5 10 -9 24 -9 32
0 20 -17 29 -26 15z m-6521 -249 c433 0 787 -3 787 -7 -1 -5 -33 -28 -73 -53
-96 -60 -230 -173 -296 -251 -204 -241 -305 -510 -318 -849 -3 -80 -10 -151
-16 -158 -8 -10 -8 -16 0 -20 11 -7 27 -193 24 -270 -2 -47 7 -72 19 -52 4 7
7 -25 7 -71 0 -83 6 -135 23 -174 4 -11 14 -40 21 -65 16 -56 29 -73 29 -37 0
15 -4 27 -10 27 -5 0 -10 15 -10 34 0 19 -4 38 -10 41 -5 3 -10 22 -10 41 0
20 -4 43 -9 52 -14 28 -23 104 -11 97 5 -3 10 -15 10 -26 0 -10 5 -29 12 -42
25 -49 28 -58 28 -86 0 -17 5 -33 10 -36 6 -3 10 -17 10 -30 0 -13 5 -27 10
-30 6 -3 10 -15 10 -25 0 -11 9 -35 20 -55 11 -20 20 -42 20 -50 0 -8 3 -15 8
-15 4 0 18 -23 31 -50 14 -28 28 -50 32 -50 4 0 11 -10 14 -21 4 -12 51 -65
104 -119 114 -115 193 -171 359 -256 l63 -32 -133 -6 c-73 -3 -990 -8 -2038
-12 -1048 -4 -1997 -9 -2110 -13 l-205 -6 115 -8 c254 -17 1119 -26 2540 -28
822 -1 1556 1 1630 6 97 5 152 4 195 -5 33 -7 104 -14 158 -15 57 -1 103 -7
110 -14 6 -6 21 -11 33 -11 13 0 26 -4 29 -10 3 -5 19 -10 35 -10 16 0 31 -4
34 -9 3 -5 20 -11 38 -14 18 -3 53 -11 78 -17 76 -19 185 -43 280 -60 30 -6
75 -15 100 -20 83 -16 105 -21 160 -31 356 -68 620 -165 784 -290 74 -56 165
-160 194 -223 25 -54 35 -269 16 -366 -14 -77 -56 -185 -83 -214 -10 -12 -22
-32 -26 -46 -11 -35 -160 -179 -228 -218 -220 -131 -544 -201 -868 -189 -226
9 -479 42 -486 64 -4 11 14 20 242 125 173 79 216 108 239 166 43 103 27 202
-41 263 -77 67 -135 73 -301 33 -329 -79 -497 -74 -807 28 -444 145 -899 477
-1141 833 -45 67 -60 82 -73 75 -9 -4 -63 -50 -121 -102 -58 -51 -222 -196
-365 -322 -143 -126 -280 -247 -304 -269 l-44 -41 34 -29 c85 -74 116 -104
120 -113 2 -5 40 -35 84 -65 44 -30 94 -64 110 -75 17 -12 60 -40 98 -64 37
-23 67 -45 67 -49 0 -3 -37 -31 -83 -61 -45 -30 -89 -62 -98 -72 -30 -29 -322
-166 -434 -203 -260 -86 -410 -109 -715 -109 -228 0 -280 4 -455 39 -577 116
-986 495 -1170 1084 -77 245 -116 503 -118 786 -2 164 20 518 33 550 5 11 11
47 14 80 3 33 9 85 15 115 6 30 13 72 17 93 3 20 10 40 15 43 5 3 9 14 9 25 0
10 4 27 9 37 5 9 13 28 19 42 42 104 166 320 201 350 4 3 20 23 36 45 44 59
175 186 247 239 35 26 71 54 81 62 9 8 20 14 23 14 3 0 24 13 47 28 58 38 215
112 240 112 7 0 17 4 23 8 5 5 29 14 54 21 25 7 55 17 68 22 13 5 33 9 45 9
13 0 27 4 33 9 5 5 27 11 49 14 22 3 78 11 125 19 105 16 574 16 675 0 180
-29 342 -70 443 -113 12 -5 32 -13 45 -18 91 -37 148 -66 133 -69 -9 -2 -22 1
-29 6 -19 15 -111 27 -103 13 4 -6 13 -11 19 -11 12 0 172 -79 240 -118 123
-71 317 -214 412 -304 22 -21 43 -38 48 -38 4 0 7 -9 7 -20 0 -20 -7 -20 -287
-20 -159 0 -425 -2 -593 -5 -168 -3 -503 -8 -745 -11 -1015 -15 -634 -30 1003
-41 779 -5 1076 -3 1210 6 328 23 273 37 -188 47 -168 3 -312 10 -321 15 -14
7 -15 60 -11 513 4 402 2 509 -8 521 -19 23 -178 119 -299 181 -58 30 -111 58
-116 63 -6 4 -17 11 -25 15 -8 3 64 4 160 1 96 -3 529 -5 963 -5z m6583 -70
c8 -25 13 -56 13 -70 l0 -25 -11 25 c-7 14 -20 43 -30 64 -22 49 -23 58 -2 54
10 -2 22 -22 30 -48z m34 -122 c0 -19 -2 -20 -10 -8 -13 19 -13 30 0 30 6 0
10 -10 10 -22z m-3807 -535 c-7 -2 -19 -2 -25 0 -7 3 -2 5 12 5 14 0 19 -2 13
-5z m-4096 -99 c-3 -3 -12 -4 -19 -1 -8 3 -5 6 6 6 11 1 17 -2 13 -5z m8263
-434 c24 -8 24 -8 -7 -9 -17 -1 -34 -5 -37 -10 -19 -30 -321 -146 -405 -156
-20 -3 -45 -7 -56 -9 -11 -2 -23 -5 -26 -5 -3 -1 -15 -10 -27 -21 -12 -12 -22
-17 -22 -12 0 18 156 152 178 152 6 0 12 5 12 10 0 6 9 10 20 10 11 0 20 4 20
8 0 4 21 13 48 20 26 8 54 17 62 22 19 11 206 11 240 0z m-11713 -2142 c-3 -7
-5 -2 -5 12 0 14 2 19 5 13 2 -7 2 -19 0 -25z m33 -64 c0 -8 -4 -14 -10 -14
-5 0 -10 9 -10 21 0 11 5 17 10 14 6 -3 10 -13 10 -21z m20 -70 c0 -13 -4 -24
-10 -24 -5 0 -10 14 -10 31 0 17 4 28 10 24 6 -3 10 -17 10 -31z m8370 -564
c0 -5 -5 -10 -11 -10 -5 0 -7 5 -4 10 3 6 8 10 11 10 2 0 4 -4 4 -10z m-20
-67 c0 -20 -3 -24 -11 -16 -7 7 -9 19 -6 27 10 24 17 19 17 -11z m-20 -63 c0
-16 -4 -30 -10 -30 -11 0 -14 43 -3 53 11 12 13 8 13 -23z m-20 -72 c0 -23 -3
-29 -11 -21 -6 6 -8 20 -4 32 9 30 15 26 15 -11z m-20 -65 c0 -20 -3 -24 -11
-16 -7 7 -9 19 -6 27 10 24 17 19 17 -11z m-20 -50 c0 -19 -3 -24 -10 -17 -6
6 -8 18 -4 27 9 24 14 21 14 -10z m-20 -49 c0 -8 -4 -12 -10 -9 -5 3 -10 10
-10 16 0 5 5 9 10 9 6 0 10 -7 10 -16z m-20 -39 c0 -8 -4 -15 -10 -15 -5 0
-10 7 -10 15 0 8 5 15 10 15 6 0 10 -7 10 -15z"/>
<path d="M10328 10033 c7 -3 16 -2 19 1 4 3 -2 6 -13 5 -11 0 -14 -3 -6 -6z"/>
<path d="M10370 10016 c0 -9 30 -14 35 -6 4 6 -3 10 -14 10 -12 0 -21 -2 -21
-4z"/>
<path d="M12103 8734 c-3 -8 -1 -20 6 -27 8 -8 11 -4 11 16 0 30 -7 35 -17 11z"/>
<path d="M12127 8685 c-4 -8 -2 -17 3 -20 6 -4 10 3 10 14 0 25 -6 27 -13 6z"/>
<path d="M12145 8641 c-3 -5 -1 -12 5 -16 5 -3 10 1 10 9 0 18 -6 21 -15 7z"/>
<path d="M12171 8599 c0 -9 6 -22 14 -29 10 -9 15 -9 15 -1 0 6 -4 11 -9 11
-5 0 -12 8 -14 18 -4 14 -5 14 -6 1z"/>
<path d="M9565 6770 c-209 -4 -438 -11 -510 -16 -123 -8 -109 -9 270 -20 604
-18 1047 -18 1118 1 32 8 72 16 90 16 30 1 30 2 -8 9 -66 13 -556 18 -960 10z"/>
<path d="M10590 6760 c0 -18 73 -31 130 -22 l55 8 -66 12 c-79 14 -119 15
-119 2z"/>
<path d="M14378 6743 c18 -2 45 -2 60 0 15 2 0 4 -33 4 -33 0 -45 -2 -27 -4z"/>
<path d="M6220 10811 c-143 -6 -141 -6 145 -15 265 -8 1865 0 1874 10 2 2
-171 4 -385 4 -214 0 -636 2 -939 4 -302 2 -615 1 -695 -3z"/>
<path d="M14433 10093 c9 -2 23 -2 30 0 6 3 -1 5 -18 5 -16 0 -22 -2 -12 -5z"/>
<path d="M16010 9490 c-168 -5 -534 -14 -815 -21 -768 -18 -824 -23 -350 -32
220 -5 546 -12 725 -17 511 -15 1204 -12 1514 6 149 8 272 17 274 18 9 9 -212
28 -417 36 -411 16 -618 19 -931 10z"/>
<path d="M6650 9483 c-30 -1 -154 -7 -275 -13 -121 -6 -238 -15 -260 -19 -36
-6 -31 -8 45 -14 47 -4 223 -10 391 -14 235 -5 328 -3 398 7 50 8 87 18 83 22
-10 10 -242 38 -292 36 -19 -1 -60 -3 -90 -5z"/>
<path d="M20300 9483 c-179 -4 -582 -24 -645 -32 -64 -8 -80 -7 535 -31 327
-14 550 -12 724 5 82 8 151 16 153 19 11 10 -79 26 -207 36 -123 9 -278 10
-560 3z"/>
<path d="M6225 8125 c-121 -7 -238 -13 -259 -14 -55 -1 -42 -9 39 -20 148 -22
484 -33 588 -20 132 17 152 32 61 47 -116 19 -200 20 -429 7z"/>
<path d="M18855 8128 c-251 -14 -302 -20 -279 -28 79 -30 689 -47 772 -22 46
14 54 29 20 37 -117 26 -235 29 -513 13z"/>
<path d="M6705 6783 c-205 -5 -579 -26 -603 -33 -24 -7 -23 -8 18 -13 84 -11
778 -30 857 -23 141 12 245 29 229 38 -19 11 -297 39 -361 36 -27 -1 -90 -3
-140 -5z"/>
<path d="M12031 5794 c-1 -23 24 -40 34 -24 4 6 -1 10 -9 10 -8 0 -17 8 -19
18 -4 13 -5 12 -6 -4z"/>
<path d="M12098 5753 c7 -3 16 -2 19 1 4 3 -2 6 -13 5 -11 0 -14 -3 -6 -6z"/>
<path d="M12158 5733 c7 -3 16 -2 19 1 4 3 -2 6 -13 5 -11 0 -14 -3 -6 -6z"/>
<path d="M14865 5690 c4 -6 11 -8 16 -5 14 9 11 15 -7 15 -8 0 -12 -5 -9 -10z"/>
<path d="M10688 5673 c7 -3 16 -2 19 1 4 3 -2 6 -13 5 -11 0 -14 -3 -6 -6z"/>
<path d="M14825 5670 c4 -6 11 -8 16 -5 14 9 11 15 -7 15 -8 0 -12 -5 -9 -10z"/>
<path d="M10638 5653 c7 -3 16 -2 19 1 4 3 -2 6 -13 5 -11 0 -14 -3 -6 -6z"/>
<path d="M14770 5656 c0 -9 30 -14 35 -6 4 6 -3 10 -14 10 -12 0 -21 -2 -21
-4z"/>
<path d="M10578 5633 c6 -2 18 -2 25 0 6 3 1 5 -13 5 -14 0 -19 -2 -12 -5z"/>
<path d="M14730 5631 c0 -5 9 -7 20 -4 11 3 20 7 20 9 0 2 -9 4 -20 4 -11 0
-20 -4 -20 -9z"/>
<path d="M10510 5616 c0 -9 30 -14 35 -6 4 6 -3 10 -14 10 -12 0 -21 -2 -21
-4z"/>
<path d="M14670 5616 c0 -9 30 -14 35 -6 4 6 -3 10 -14 10 -12 0 -21 -2 -21
-4z"/>
<path d="M10450 5596 c0 -10 28 -13 41 -5 10 6 7 9 -13 9 -16 0 -28 -2 -28 -4z"/>
<path d="M14625 5590 c3 -5 12 -7 20 -3 21 7 19 13 -6 13 -11 0 -18 -4 -14
-10z"/>
<path d="M10384 5571 c7 -10 31 -9 42 2 4 4 -5 7 -20 7 -15 0 -25 -4 -22 -9z"/>
<path d="M14550 5576 c0 -10 28 -13 41 -5 10 6 7 9 -13 9 -16 0 -28 -2 -28 -4z"/>
<path d="M10318 5549 c15 -6 30 -5 40 1 13 7 8 9 -23 9 -35 0 -37 -1 -17 -10z"/>
<path d="M14498 5553 c6 -2 18 -2 25 0 6 3 1 5 -13 5 -14 0 -19 -2 -12 -5z"/>
<path d="M10220 5530 c20 -13 57 -13 65 0 4 6 -11 10 -37 10 -31 0 -39 -3 -28
-10z"/>
<path d="M14413 5533 c9 -2 25 -2 35 0 9 3 1 5 -18 5 -19 0 -27 -2 -17 -5z"/>
<path d="M14323 5513 c9 -2 25 -2 35 0 9 3 1 5 -18 5 -19 0 -27 -2 -17 -5z"/>
<path d="M14208 5493 c12 -2 30 -2 40 0 9 3 -1 5 -23 4 -22 0 -30 -2 -17 -4z"/>
<path d="M14053 5473 c15 -2 37 -2 50 0 12 2 0 4 -28 4 -27 0 -38 -2 -22 -4z"/>
<path d="M23672 10603 c-1 -14 -9 -23 -18 -23 -8 0 -12 -5 -9 -10 4 -6 10 -8
15 -5 5 3 10 -9 12 -27 2 -18 5 -26 8 -18 3 8 3 35 -1 60 -3 25 -7 35 -7 23z"/>
<path d="M23618 10593 c7 -3 16 -2 19 1 4 3 -2 6 -13 5 -11 0 -14 -3 -6 -6z"/>
<path d="M23652 10445 c0 -16 2 -22 5 -12 2 9 2 23 0 30 -3 6 -5 -1 -5 -18z"/>
<path d="M23380 8130 c-91 -4 -342 -8 -557 -9 -325 -1 -393 -3 -393 -15 0 -23
81 -28 575 -35 944 -12 1285 -3 1285 33 0 27 -514 42 -910 26z"/>
<path d="M22290 7809 c0 -5 5 -7 10 -4 6 3 10 8 10 11 0 2 -4 4 -10 4 -5 0
-10 -5 -10 -11z"/>
<path d="M22230 7649 c0 -5 5 -7 10 -4 6 3 10 8 10 11 0 2 -4 4 -10 4 -5 0
-10 -5 -10 -11z"/>
<path d="M22210 7609 c0 -5 5 -7 10 -4 6 3 10 8 10 11 0 2 -4 4 -10 4 -5 0
-10 -5 -10 -11z"/>
<path d="M22190 7569 c0 -5 5 -7 10 -4 6 3 10 8 10 11 0 2 -4 4 -10 4 -5 0
-10 -5 -10 -11z"/>
<path d="M22166 7524 c-5 -14 -4 -15 9 -4 17 14 19 20 6 20 -5 0 -12 -7 -15
-16z"/>
<path d="M22110 7429 c0 -5 5 -7 10 -4 6 3 10 8 10 11 0 2 -4 4 -10 4 -5 0
-10 -5 -10 -11z"/>
<path d="M22090 7389 c0 -5 5 -7 10 -4 6 3 10 8 10 11 0 2 -4 4 -10 4 -5 0
-10 -5 -10 -11z"/>
<path d="M22066 7344 c-5 -14 -4 -15 9 -4 17 14 19 20 6 20 -5 0 -12 -7 -15
-16z"/>
<path d="M22030 7289 c0 -5 5 -7 10 -4 6 3 10 8 10 11 0 2 -4 4 -10 4 -5 0
-10 -5 -10 -11z"/>
<path d="M22010 7249 c0 -5 5 -7 10 -4 6 3 10 8 10 11 0 2 -4 4 -10 4 -5 0
-10 -5 -10 -11z"/>
<path d="M21990 7216 c0 -8 -6 -16 -12 -19 -7 -2 -10 -7 -7 -11 3 -3 14 2 23
13 11 12 14 21 7 26 -6 3 -11 0 -11 -9z"/>
<path d="M21950 7149 c0 -5 5 -7 10 -4 6 3 10 8 10 11 0 2 -4 4 -10 4 -5 0
-10 -5 -10 -11z"/>
<path d="M21930 7116 c0 -8 -6 -16 -12 -19 -7 -2 -10 -7 -7 -11 3 -3 14 2 23
13 11 12 14 21 7 26 -6 3 -11 0 -11 -9z"/>
<path d="M21890 7049 c0 -5 5 -7 10 -4 6 3 10 8 10 11 0 2 -4 4 -10 4 -5 0
-10 -5 -10 -11z"/>
<path d="M21870 7016 c0 -8 -6 -16 -12 -19 -7 -2 -10 -7 -7 -11 3 -3 14 2 23
13 11 12 14 21 7 26 -6 3 -11 0 -11 -9z"/>
<path d="M21830 6949 c0 -5 5 -7 10 -4 6 3 10 8 10 11 0 2 -4 4 -10 4 -5 0
-10 -5 -10 -11z"/>
<path d="M21810 6909 c0 -5 5 -7 10 -4 6 3 10 8 10 11 0 2 -4 4 -10 4 -5 0
-10 -5 -10 -11z"/>
<path d="M21791 6871 c-1 -13 -11 -32 -23 -42 -11 -11 -19 -21 -16 -24 2 -3
16 8 30 23 19 20 24 32 18 47 -8 19 -9 18 -9 -4z"/>
<path d="M21690 6694 c0 -8 5 -12 10 -9 6 4 8 11 5 16 -9 14 -15 11 -15 -7z"/>
<path d="M21670 6659 c0 -11 4 -18 10 -14 5 3 7 12 3 20 -7 21 -13 19 -13 -6z"/>
<path d="M21650 6619 c0 -11 4 -18 10 -14 5 3 7 12 3 20 -7 21 -13 19 -13 -6z"/>
<path d="M21630 6579 c0 -11 4 -18 10 -14 5 3 7 12 3 20 -7 21 -13 19 -13 -6z"/>
<path d="M21610 6539 c0 -11 4 -18 10 -14 5 3 7 12 3 20 -7 21 -13 19 -13 -6z"/>
<path d="M21590 6489 c0 -16 4 -28 9 -25 8 5 3 56 -5 56 -2 0 -4 -14 -4 -31z"/>
<path d="M21570 6439 c0 -11 4 -18 10 -14 5 3 7 12 3 20 -7 21 -13 19 -13 -6z"/>
<path d="M21550 6399 c0 -11 4 -18 10 -14 5 3 7 12 3 20 -7 21 -13 19 -13 -6z"/>
<path d="M21701 6403 c-7 -8 -11 -16 -8 -19 2 -2 10 2 17 11 17 20 9 27 -9 8z"/>
<path d="M21530 6359 c0 -11 4 -18 10 -14 5 3 7 12 3 20 -7 21 -13 19 -13 -6z"/>
<path d="M21510 6319 c0 -11 4 -18 10 -14 5 3 7 12 3 20 -7 21 -13 19 -13 -6z"/>
<path d="M21491 6273 c-1 -17 -7 -33 -13 -36 -7 -2 -10 -7 -7 -11 13 -14 36
29 28 54 -7 24 -7 23 -8 -7z"/>
<path d="M21581 6263 c-7 -8 -11 -16 -8 -19 2 -2 10 2 17 11 17 20 9 27 -9 8z"/>
<path d="M21451 6193 c-1 -17 -7 -33 -13 -36 -7 -2 -10 -7 -7 -11 13 -14 36
29 28 54 -7 24 -7 23 -8 -7z"/>
<path d="M21410 6119 c0 -11 4 -18 10 -14 5 3 7 12 3 20 -7 21 -13 19 -13 -6z"/>
<path d="M22113 10153 c-196 -195 -428 -597 -448 -779 -17 -144 65 -244 199
-244 142 0 297 122 501 395 134 180 210 255 258 255 7 0 23 -9 35 -20 99 -93
-161 -537 -425 -727 l-63 -45 56 -63 c31 -35 62 -66 69 -69 27 -10 192 129
284 239 92 109 139 181 199 305 93 193 119 317 88 423 -29 100 -123 167 -234
167 -128 0 -231 -83 -428 -345 -151 -200 -201 -255 -257 -285 -78 -41 -100
-13 -68 88 45 138 219 407 358 553 l86 90 -64 65 c-35 35 -67 64 -71 64 -4 0
-38 -30 -75 -67z"/>
<path d="M22179 8816 c-6 -6 -399 -24 -764 -36 l-310 -10 -57 -63 c-32 -34
-56 -69 -54 -77 2 -8 17 -51 34 -95 154 -414 282 -769 282 -780 0 -10 -15 -6
-53 15 l-54 29 -79 -72 c-303 -275 -601 -520 -623 -512 -15 6 -293 181 -478
302 -62 40 -117 73 -123 73 -18 0 -170 -121 -170 -135 0 -7 46 -43 103 -78
236 -149 503 -319 517 -331 18 -15 135 -86 143 -86 5 0 171 131 321 253 213
172 531 454 651 576 l69 71 -37 90 c-20 50 -37 96 -37 102 0 5 51 65 113 132
62 66 168 185 236 264 121 141 136 153 186 142 6 -1 54 1 107 5 l97 7 75 98
c42 54 76 103 76 109 0 10 -161 17 -171 7z m-519 -245 c0 -16 -264 -311 -279
-311 -6 0 -121 287 -121 303 0 9 64 14 238 15 89 1 162 -2 162 -7z"/>
<path d="M19511 7312 c-234 -161 -443 -293 -671 -424 -85 -49 -159 -94 -165
-99 -13 -14 9 -32 240 -189 105 -72 222 -153 260 -180 150 -107 215 -150 226
-150 7 0 42 17 78 38 36 20 78 43 94 51 15 8 27 20 27 28 0 7 -62 54 -137 103
-76 49 -146 96 -157 103 -17 12 -10 18 80 72 252 149 653 416 661 440 2 8
-113 88 -148 103 -4 2 -65 -37 -136 -86 -152 -106 -364 -243 -522 -336 -125
-74 -121 -74 -187 -21 l-29 23 33 19 c160 89 700 445 717 473 5 8 -80 70 -135
100 -14 7 -41 -7 -129 -68z"/>
</g>
</svg>
